<svg xmlns="http://www.w3.org/2000/svg" xmlns:xlink="http://www.w3.org/1999/xlink" width="1660" height="1660" viewBox="0 0 1660 1660" fill="none">
<g opacity="0.4">
<path   fill-rule="evenodd"  fill="#FFFFFF"  d="M834.583 1.01221L834.586 0.0122141C833.247 0.0049678 831.906 0.000894053 830.565 0L830.562 0.999991L834.583 1.01221ZM826.544 0.006855C825.204 0.0123171 823.865 0.020954 822.527 0.0327585L822.533 1.03269L826.55 1.00683L826.544 0.006855ZM842.613 0.0937061C841.277 0.0737982 839.94 0.0570485 838.602 0.0434642L838.589 1.04338L842.601 1.09363L842.613 0.0937061ZM818.514 0.0776648C817.177 0.0957967 815.841 0.117088 814.506 0.141534L814.522 1.14135L818.53 1.07754L818.514 0.0776648ZM850.622 0.251C849.289 0.218487 847.955 0.189118 846.62 0.1629L846.598 1.16266L850.6 1.25076L850.622 0.251ZM810.502 0.224324C809.169 0.255068 807.836 0.288958 806.504 0.325988L806.529 1.32566L810.528 1.224L810.502 0.224324ZM858.613 0.483749C857.282 0.438689 855.952 0.396758 854.62 0.357964L854.588 1.35747L858.581 1.48325L858.613 0.483749ZM802.509 0.446491C801.179 0.489792 799.849 0.536223 798.52 0.585781L798.555 1.5852L802.544 1.44588L802.509 0.446491ZM866.584 0.79162C865.257 0.734068 863.929 0.679631 862.601 0.628317L862.56 1.62748L866.543 1.79078L866.584 0.79162ZM794.535 0.743818C793.208 0.799617 791.881 0.858534 790.556 0.920561L790.6 1.91954L794.58 1.74283L794.535 0.743818ZM874.555 1.17529C873.225 1.10493 871.894 1.0377 870.562 0.973614L870.512 1.97234L874.505 2.17402L874.555 1.17529ZM786.573 1.11636C785.235 1.18534 783.897 1.2575 782.561 1.33281L782.615 2.33137L786.627 2.11491L786.573 1.11636ZM882.572 1.63784C881.238 1.55443 879.902 1.47418 878.566 1.39708L878.506 2.39528L882.512 2.63604L882.572 1.63784ZM778.553 1.56825C777.218 1.64988 775.884 1.73467 774.551 1.82261L774.615 2.82061L778.617 2.56623L778.553 1.56825ZM890.569 2.17607C889.238 2.08008 887.906 1.98722 886.573 1.89752L886.503 2.8951L890.499 3.17365L890.569 2.17607ZM770.554 2.09586C769.223 2.19009 767.892 2.28745 766.562 2.38795L766.635 3.38527L770.627 3.09319L770.554 2.09586ZM898.544 2.78963C897.217 2.68111 895.888 2.57572 894.559 2.47345L894.48 3.47032L898.465 3.78649L898.544 2.78963ZM762.576 2.69884C761.248 2.8056 759.921 2.91549 758.594 3.02849L758.677 4.02509L762.658 3.69543L762.576 2.69884ZM906.498 3.47816C905.174 3.35717 903.85 3.2393 902.524 3.12454L902.435 4.12061L906.41 4.47422L906.498 3.47816ZM754.618 3.37686C753.294 3.49609 751.97 3.61844 750.648 3.74389L750.74 4.73964L754.71 4.37261L754.618 3.37686ZM914.431 4.24131C913.111 4.10792 911.79 3.97762 910.467 3.85042L910.369 4.8456L914.333 5.23648L914.431 4.24131ZM746.683 4.12953C745.354 4.26195 744.026 4.3975 742.7 4.53618L742.801 5.53102L746.784 5.12436L746.683 4.12953ZM922.413 5.08662C921.084 4.93938 919.754 4.79527 918.423 4.65432L918.315 5.6485L922.306 6.08081L922.413 5.08662ZM738.708 4.96319C737.378 5.10867 736.049 5.25729 734.722 5.40904L734.833 6.40285L738.819 5.957L738.708 4.96319ZM930.377 6.0077C929.052 5.84793 927.725 5.69129 926.398 5.53777L926.281 6.53087L930.26 7.0008L930.377 6.0077ZM730.741 5.87368C729.415 6.0317 728.09 6.19284 726.766 6.35711L726.887 7.3498L730.862 6.86638L730.741 5.87368ZM938.318 7.00373C936.996 6.8315 935.674 6.66238 934.35 6.49637L934.223 7.48829L938.191 7.99566L938.318 7.00373ZM722.797 6.85923C721.475 7.02971 720.154 7.2033 718.834 7.37999L718.964 8.37147L722.927 7.8507L722.797 6.85923ZM946.235 8.07438C944.917 7.88975 943.599 7.7082 942.279 7.52976L942.143 8.52041L946.098 9.06504L946.235 8.07438ZM714.877 7.9194C713.559 8.10229 712.241 8.28828 710.925 8.47736L711.065 9.46753L715.016 8.90957L714.877 7.9194ZM954.128 9.21927C952.815 9.02229 951.5 8.82838 950.184 8.63756L950.039 9.62686L953.982 10.2085L954.128 9.21927ZM706.98 9.05387C705.664 9.24936 704.349 9.44793 703.036 9.64958L703.185 10.6384L707.129 10.0426L706.98 9.05387ZM962.045 10.4456C960.724 10.2345 959.402 10.0265 958.08 9.82161L957.924 10.8094L961.889 11.4334L962.045 10.4456ZM699.069 10.2683C697.748 10.4776 696.428 10.6901 695.109 10.9057L695.268 11.893L699.228 11.2556L699.069 10.2683ZM969.956 11.7496C968.639 11.526 967.322 11.3056 966.003 11.0883L965.838 12.0745L969.791 12.7359L969.956 11.7496ZM691.155 11.5618C689.838 11.7836 688.522 12.0085 687.207 12.2365L687.375 13.2221L691.323 12.5475L691.155 11.5618ZM977.841 13.128C976.529 12.8921 975.216 12.6592 973.902 12.4295L973.727 13.4141L977.667 14.1126L977.841 13.128ZM683.266 12.9297C681.953 13.1639 680.641 13.4012 679.331 13.6415L679.509 14.6255L683.444 13.9138L683.266 12.9297ZM985.701 14.5803C984.393 14.3321 983.084 14.087 981.774 13.8449L981.59 14.8278L985.517 15.5633L985.701 14.5803ZM675.402 14.3718C674.094 14.6182 672.786 14.8678 671.48 15.1204L671.668 16.1027L675.589 15.354L675.402 14.3718ZM993.535 16.1064C992.232 15.8459 990.927 15.5885 989.621 15.3342L989.428 16.3153L993.341 17.0875L993.535 16.1064ZM667.565 15.8874C666.26 16.1462 664.958 16.408 663.656 16.6728L663.853 17.6532L667.762 16.8679L667.565 15.8874ZM1001.37 17.7121C1000.06 17.4374 998.754 17.1657 997.443 16.8972L997.24 17.8763L1001.17 18.6912L1001.37 17.7121ZM659.731 17.4811C658.422 17.7541 657.114 18.0302 655.807 18.3093L656.013 19.2878L659.938 18.4596L659.731 17.4811ZM1009.21 19.3973C1007.91 19.1103 1006.6 18.8264 1005.3 18.5455L1005.08 19.5226L1009 20.3745L1009.21 19.3973ZM651.889 19.156C650.584 19.4413 649.28 19.7297 647.978 20.0211L648.194 20.9975L652.105 20.1324L651.889 19.156ZM1017.02 21.1562C1015.72 20.857 1014.42 20.5608 1013.12 20.2676L1012.9 21.2426L1016.8 22.1313L1017.02 21.1562ZM644.074 20.9046C642.774 21.2021 641.475 21.5027 640.177 21.8063L640.402 22.7806L644.299 21.8788L644.074 20.9046ZM1024.81 22.9883C1023.51 22.6769 1022.21 22.3685 1020.92 22.0632L1020.69 23.036L1024.57 23.9612L1024.81 22.9883ZM636.287 22.7264C634.992 23.0361 633.697 23.3489 632.404 23.6646L632.639 24.6367L636.522 23.6984L636.287 22.7264ZM1032.56 24.8933C1031.27 24.5698 1029.98 24.2492 1028.69 23.9317L1028.45 24.9023L1032.32 25.8638L1032.56 24.8933ZM628.528 24.6211C627.238 24.9429 625.948 25.2678 624.66 25.5957L624.904 26.5654L628.773 25.5908L628.528 24.6211ZM1040.3 26.8756C1039.01 26.5383 1037.72 26.2041 1036.43 25.873L1036.18 26.8411L1040.05 27.8438L1040.3 26.8756ZM620.787 26.5913C619.493 26.9274 618.2 27.2666 616.908 27.6088L617.161 28.576L621.041 27.5586L620.787 26.5913ZM1048.05 28.9389C1046.76 28.5889 1045.47 28.242 1044.18 27.8981L1043.92 28.8638L1047.79 29.9046L1048.05 28.9389ZM613.036 28.6444C611.747 28.9927 610.458 29.3439 609.172 29.6982L609.435 30.663L613.299 29.6092L613.036 28.6444ZM1055.77 31.0748C1054.48 30.7128 1053.2 30.3538 1051.91 29.9978L1051.64 30.9609L1055.5 32.038L1055.77 31.0748ZM605.315 30.7702C604.03 31.1305 602.747 31.4938 601.465 31.8602L601.738 32.8223L605.587 31.7323L605.315 30.7702ZM1063.46 33.2831C1062.18 32.909 1060.9 32.538 1059.62 32.1699L1059.34 33.1304L1063.18 34.2435L1063.46 33.2831ZM597.624 32.9682C596.344 33.3406 595.066 33.7159 593.79 34.0943L594.071 35.0537L597.906 33.9277L597.624 32.9682ZM1071.11 35.5631C1069.84 35.1771 1068.56 34.7941 1067.29 34.4141L1067 35.3718L1070.82 36.5208L1071.11 35.5631ZM589.963 35.2382C588.689 35.6225 587.416 36.0098 586.145 36.4L586.436 37.3567L590.254 36.1949L589.963 35.2382ZM1078.75 37.918C1077.48 37.519 1076.2 37.123 1074.93 36.7299L1074.63 37.6848L1078.45 38.8729L1078.75 37.918ZM582.329 37.5812C581.053 37.9796 579.778 38.3811 578.505 38.7855L578.805 39.7393L582.63 38.535L582.329 37.5812ZM1086.38 40.3546C1085.11 39.9425 1083.84 39.5335 1082.57 39.1274L1082.26 40.0793L1086.08 41.3066L1086.38 40.3546ZM574.688 40.0077C573.418 40.4181 572.148 40.8315 570.88 41.2479L571.19 42.1987L574.998 40.9586L574.688 40.0077ZM1093.99 42.8628C1092.72 42.4389 1091.46 42.0179 1090.19 41.5998L1089.87 42.5487L1093.67 43.8117L1093.99 42.8628ZM567.08 42.5058C565.814 42.9281 564.55 43.3534 563.288 43.7816L563.606 44.7295L567.399 43.4537L567.08 42.5058ZM1101.56 45.4421C1100.3 45.0063 1099.04 44.5735 1097.78 44.1436L1097.45 45.0894L1101.23 46.3879L1101.56 45.4421ZM559.503 45.0751C558.244 45.5092 556.985 45.9463 555.728 46.3863L556.056 47.3309L559.832 46.0198L559.503 45.0751ZM1109.1 48.092C1107.84 47.6445 1106.59 47.1999 1105.33 46.7582L1105 47.7008L1108.76 49.0346L1109.1 48.092ZM551.96 47.7151C550.706 48.161 549.453 48.6098 548.201 49.0615L548.538 50.003L552.297 48.6566L551.96 47.7151ZM1116.61 50.8144C1115.36 50.3545 1114.11 49.8975 1112.85 49.4434L1112.51 50.3827L1116.27 51.7538L1116.61 50.8144ZM544.45 50.4258C543.195 50.8856 541.941 51.3483 540.689 51.814L541.035 52.7522L544.796 51.3639L544.45 50.4258ZM1124.12 53.6184C1122.87 53.1452 1121.62 52.675 1120.37 52.2076L1120.01 53.1436L1123.76 54.5544L1124.12 53.6184ZM536.937 53.2199C535.688 53.6914 534.44 54.1659 533.194 54.6433L533.549 55.578L537.293 54.1546L536.937 53.2199ZM1131.59 56.4926C1130.35 56.0078 1129.1 55.5258 1127.86 55.0468L1127.5 55.9793L1131.23 57.4251L1131.59 56.4926ZM529.459 56.0842C528.216 56.5674 526.974 57.0535 525.733 57.5426L526.098 58.4738L529.824 57.0154L529.459 56.0842ZM1139.03 59.4366C1137.79 58.9401 1136.55 58.4466 1135.31 57.9559L1134.94 58.8848L1138.66 60.3655L1139.03 59.4366ZM522.016 59.0183C520.778 59.5132 519.542 60.0109 518.308 60.5115L518.681 61.4391L522.39 59.946L522.016 59.0183ZM1146.43 62.4499C1145.2 61.9419 1143.97 61.4368 1142.73 60.9346L1142.35 61.8599L1146.05 63.3752L1146.43 62.4499ZM514.608 62.022C513.376 62.5283 512.146 63.0376 510.918 63.5497L511.3 64.4737L514.991 62.9459L514.608 62.022ZM1153.8 65.5335C1152.58 65.0137 1151.35 64.4966 1150.12 63.9825L1149.73 64.9041L1153.41 66.4551L1153.8 65.5335ZM507.236 65.0946C506.006 65.6144 504.777 66.1371 503.549 66.6627L503.941 67.5829L507.627 66.0149L507.236 65.0946ZM1161.16 68.6977C1159.94 68.1646 1158.71 67.6343 1157.49 67.107L1157.09 68.0247L1160.77 69.6154L1161.16 68.6977ZM499.871 68.2485C498.646 68.78 497.423 69.3144 496.201 69.8516L496.602 70.768L500.271 69.1649L499.871 68.2485ZM1168.49 71.9305C1167.27 71.386 1166.05 70.8443 1164.83 70.3055L1164.42 71.2194L1168.08 72.8444L1168.49 71.9305ZM492.541 71.4718C491.323 72.0147 490.106 72.5604 488.89 73.109L489.3 74.0215L492.95 72.3842L492.541 71.4718ZM1175.77 75.2318C1174.56 74.6759 1173.35 74.1228 1172.13 73.5726L1171.72 74.4825L1175.36 76.1417L1175.77 75.2318ZM485.249 74.7634C484.036 75.3177 482.826 75.8748 481.617 76.4347L482.035 77.3432L485.667 75.6718L485.249 74.7634ZM1183.02 78.6009C1181.82 78.0337 1180.61 77.4694 1179.4 76.9079L1178.98 77.8137L1182.6 79.5067L1183.02 78.6009ZM477.994 78.1231C476.788 78.6886 475.583 79.257 474.381 79.8282L474.807 80.7325L478.421 79.0274L477.994 78.1231ZM1190.24 82.0383C1189.04 81.4597 1187.84 80.8839 1186.63 80.3108L1186.2 81.2125L1189.8 82.94L1190.24 82.0383ZM470.777 81.5503C469.574 82.1288 468.372 82.71 467.173 83.2941L467.608 84.1943L471.213 82.4504L470.777 81.5503ZM1197.43 85.5544C1196.24 84.9628 1195.04 84.3739 1193.84 83.7879L1193.4 84.6854L1196.99 86.4518L1197.43 85.5544ZM463.576 85.0559C462.379 85.6459 461.183 86.2388 459.989 86.8344L460.433 87.7304L464.02 85.9518L463.576 85.0559ZM1204.59 89.1377C1203.4 88.5349 1202.21 87.9349 1201.02 87.3376L1200.57 88.2308L1204.14 90.0308L1204.59 89.1377ZM456.412 88.6298C455.221 89.231 454.032 89.835 452.844 90.4418L453.297 91.3334L456.864 89.5213L456.412 88.6298ZM1211.71 92.7877C1210.53 92.1738 1209.34 91.5627 1208.16 90.9544L1207.7 91.8431L1211.25 93.6765L1211.71 92.7877ZM449.287 92.2705C448.103 92.8828 446.92 93.4979 445.739 94.1158L446.201 95.0029L449.748 93.1576L449.287 92.2705ZM1218.79 96.5042C1217.61 95.8792 1216.44 95.2571 1215.26 94.6376L1214.79 95.5219L1218.32 97.3884L1218.79 96.5042ZM442.202 95.9776C441.025 96.601 439.849 97.2271 438.675 97.856L439.145 98.7386L442.672 96.8603L442.202 95.9776ZM1225.83 100.287C1224.66 99.6508 1223.49 99.0176 1222.32 98.3871L1221.84 99.2668L1225.35 101.167L1225.83 100.287ZM435.157 99.7507C433.984 100.387 432.812 101.025 431.643 101.666L432.121 102.544L435.636 100.629L435.157 99.7507ZM1232.85 104.146C1231.68 103.497 1230.51 102.851 1229.34 102.208L1228.86 103.083L1232.36 105.021L1232.85 104.146ZM428.136 103.6C426.969 104.247 425.803 104.896 424.639 105.549L425.126 106.422L428.623 104.473L428.136 103.6ZM1239.82 108.071C1238.67 107.411 1237.51 106.754 1236.34 106.1L1235.85 106.97L1239.33 108.941L1239.82 108.071ZM421.153 107.515C419.993 108.173 418.835 108.834 417.678 109.497L418.173 110.366L421.649 108.384L421.153 107.515ZM1246.76 112.06C1245.61 111.39 1244.45 110.722 1243.3 110.057L1242.8 110.923L1246.26 112.926L1246.76 112.06ZM414.213 111.495C413.059 112.164 411.908 112.836 410.758 113.51L411.262 114.374L414.716 112.359L414.213 111.495ZM1253.65 116.114C1252.51 115.433 1251.36 114.755 1250.21 114.079L1249.7 114.94L1253.14 116.975L1253.65 116.114ZM407.314 115.541C406.168 116.22 405.024 116.902 403.881 117.587L404.393 118.446L407.826 116.4L407.314 115.541ZM1260.5 120.233C1259.36 119.541 1258.22 118.852 1257.08 118.166L1256.56 119.021L1259.98 121.089L1260.5 120.233ZM400.459 119.65C399.317 120.342 398.178 121.036 397.041 121.733L397.561 122.587L400.979 120.504L400.459 119.65ZM1267.32 124.425C1266.19 123.721 1265.06 123.02 1263.92 122.321L1263.39 123.172L1266.8 125.276L1267.32 124.425ZM393.632 123.832C392.498 124.535 391.365 125.24 390.234 125.948L390.763 126.796L394.161 124.681L393.632 123.832ZM1274.1 128.681C1272.98 127.966 1271.85 127.254 1270.72 126.545L1270.19 127.391L1273.57 129.527L1274.1 128.681ZM386.847 128.079C385.72 128.792 384.595 129.508 383.471 130.226L384.008 131.07L387.384 128.923L386.847 128.079ZM1280.84 133C1279.72 132.275 1278.6 131.552 1277.48 130.833L1276.93 131.673L1280.3 133.84L1280.84 133ZM380.106 132.389C378.987 133.113 377.869 133.839 376.753 134.568L377.297 135.407L380.651 133.228L380.106 132.389ZM1287.53 137.382C1286.42 136.646 1285.3 135.914 1284.19 135.183L1283.64 136.018L1286.98 138.217L1287.53 137.382ZM373.41 136.762C372.298 137.496 371.187 138.233 370.079 138.972L370.632 139.806L373.963 137.596L373.41 136.762ZM1294.17 141.827C1293.07 141.081 1291.96 140.337 1290.86 139.596L1290.3 140.426L1293.61 142.656L1294.17 141.827ZM366.759 141.198C365.653 141.944 364.548 142.692 363.446 143.442L364.006 144.27L367.32 142.026L366.759 141.198ZM1300.78 146.341C1299.69 145.584 1298.59 144.829 1297.48 144.076L1296.92 144.901L1300.22 147.166L1300.78 146.341ZM360.142 145.703C359.043 146.459 357.946 147.217 356.851 147.979L357.42 148.802L360.711 146.526L360.142 145.703ZM1307.35 150.918C1306.26 150.15 1305.16 149.384 1304.07 148.622L1303.5 149.441L1306.78 151.737L1307.35 150.918ZM353.571 150.271C352.479 151.037 351.39 151.806 350.302 152.578L350.879 153.395L354.147 151.088L353.571 150.271ZM1313.87 155.556C1312.79 154.778 1311.7 154.002 1310.61 153.229L1310.03 154.042L1313.29 156.369L1313.87 155.556ZM347.045 154.9C345.961 155.677 344.88 156.456 343.8 157.238L344.384 158.049L347.629 155.712L347.045 154.9ZM1320.34 160.255C1319.27 159.466 1318.19 158.681 1317.11 157.898L1316.52 158.705L1319.75 161.062L1320.34 160.255ZM340.566 159.59C339.49 160.377 338.416 161.167 337.344 161.958L337.937 162.764L341.158 160.396L340.566 159.59ZM1326.77 165.014C1325.7 164.216 1324.63 163.42 1323.56 162.627L1322.96 163.429L1326.17 165.816L1326.77 165.014ZM334.134 164.342C333.065 165.139 331.998 165.939 330.933 166.742L331.533 167.542L334.734 165.142L334.134 164.342ZM1333.15 169.84C1332.09 169.031 1331.03 168.224 1329.96 167.42L1329.36 168.216L1332.55 170.637L1333.15 169.84ZM327.743 169.158C326.682 169.966 325.622 170.777 324.565 171.59L325.172 172.384L328.351 169.953L327.743 169.158ZM1339.49 174.726C1338.44 173.907 1337.38 173.09 1336.33 172.276L1335.71 173.066L1338.88 175.517L1339.49 174.726ZM321.399 174.036C320.345 174.854 319.294 175.674 318.245 176.497L318.86 177.286L322.014 174.824L321.399 174.036ZM1345.78 179.672C1344.73 178.842 1343.69 178.016 1342.64 177.192L1342.02 177.976L1345.16 180.456L1345.78 179.672ZM315.103 178.973C314.058 179.801 313.014 180.631 311.973 181.464L312.596 182.246L315.726 179.756L315.103 178.973ZM1352.02 184.677C1350.98 183.838 1349.94 183.001 1348.9 182.167L1348.28 182.945L1351.39 185.455L1352.02 184.677ZM308.856 183.969C307.819 184.807 306.784 185.647 305.751 186.49L306.381 187.266L309.486 184.746L308.856 183.969ZM1358.21 189.74C1357.18 188.891 1356.15 188.045 1355.12 187.201L1354.48 187.973L1357.57 190.512L1358.21 189.74ZM302.658 189.024C301.629 189.872 300.602 190.723 299.576 191.576L300.214 192.346L303.296 189.795L302.658 189.024ZM1364.35 194.866C1363.33 194.007 1362.31 193.15 1361.29 192.295L1360.65 193.062L1363.71 195.632L1364.35 194.866ZM296.506 194.142C295.485 194.999 294.466 195.86 293.448 196.722L294.093 197.486L297.151 194.906L296.506 194.142ZM1370.45 200.049C1369.44 199.181 1368.42 198.314 1367.41 197.45L1366.76 198.211L1369.19 200.282L1369.8 200.808L1370.45 200.049ZM290.403 199.317C289.391 200.185 288.38 201.055 287.371 201.927L288.023 202.685L291.056 200.075L290.403 199.317ZM1376.49 205.291C1375.49 204.412 1374.49 203.536 1373.48 202.663L1372.82 203.418L1372.88 203.464L1375.84 206.045L1376.49 205.291ZM284.352 204.55C283.347 205.427 282.345 206.307 281.345 207.189L282.004 207.94L285.011 205.302L284.352 204.55ZM1382.49 210.589C1381.49 209.701 1380.5 208.816 1379.5 207.933L1378.83 208.681L1380.67 210.312L1381.82 211.336L1382.49 210.589ZM278.351 209.841C277.355 210.727 276.361 211.616 275.37 212.507L276.037 213.253L279.018 210.586L278.351 209.841ZM1388.43 215.944C1387.44 215.047 1386.46 214.152 1385.47 213.259L1384.8 214.001L1387.06 216.046L1387.76 216.684L1388.43 215.944ZM272.402 215.188C271.414 216.084 270.429 216.983 269.446 217.883L270.121 218.621L270.64 218.146L273.075 215.927L272.402 215.188ZM1394.32 221.358C1393.35 220.451 1392.37 219.546 1391.38 218.644L1390.7 219.379L1393.64 222.092L1394.32 221.358ZM266.502 220.593C265.523 221.499 264.547 222.407 263.572 223.317L264.253 224.049L267.183 221.326L266.502 220.593ZM1400.16 226.827C1399.19 225.911 1398.22 224.997 1397.25 224.085L1396.56 224.813L1399.48 227.555L1400.16 226.827ZM260.655 226.055C259.685 226.97 258.717 227.887 257.751 228.806L258.439 229.532L261.343 226.781L260.655 226.055ZM1405.95 232.352C1404.99 231.426 1404.03 230.503 1403.06 229.582L1402.37 230.304L1405.26 233.073L1405.95 232.352ZM254.861 231.572C253.9 232.496 252.941 233.422 251.984 234.351L252.679 235.07L255.556 232.291L254.861 231.572ZM1411.68 237.931C1410.73 236.997 1409.78 236.065 1408.82 235.135L1408.12 235.851L1409.11 236.816L1410.98 238.646L1411.68 237.931ZM249.12 237.144C248.168 238.077 247.218 239.012 246.27 239.95L246.971 240.663L249.822 237.856L249.12 237.144ZM1417.36 243.566C1416.42 242.622 1415.48 241.681 1414.53 240.742L1413.82 241.451L1415.57 243.189L1416.66 244.273L1417.36 243.566ZM243.433 242.77C242.49 243.713 241.548 244.657 240.61 245.604L241.318 246.31L244.141 243.476L243.433 242.77ZM1422.99 249.254C1422.05 248.302 1421.12 247.351 1420.18 246.403L1419.47 247.105L1422.28 249.956L1422.99 249.254ZM237.8 248.451C236.866 249.402 235.934 250.356 235.004 251.312L235.72 252.01L237.323 250.366L238.514 249.151L237.8 248.451ZM1428.56 254.996C1427.63 254.035 1426.71 253.076 1425.78 252.119L1425.06 252.813L1427.84 255.691L1428.56 254.996ZM232.221 254.186C231.296 255.146 230.373 256.108 229.453 257.073L230.175 257.765L232.943 254.878L232.221 254.186ZM1434.07 260.792C1433.16 259.821 1432.24 258.853 1431.32 257.887L1430.6 258.575L1433.35 261.479L1434.07 260.792ZM226.698 259.974C225.782 260.943 224.868 261.914 223.957 262.888L224.685 263.573L227.426 260.659L226.698 259.974ZM1439.53 266.64C1438.63 265.66 1437.72 264.683 1436.81 263.709L1436.08 264.39L1438.8 267.321L1439.53 266.64ZM221.23 265.815C220.323 266.793 219.419 267.773 218.517 268.755L219.252 269.433L221.965 266.493L221.23 265.815ZM1444.94 272.541C1444.04 271.553 1443.14 270.567 1442.24 269.584L1441.51 270.258L1442.91 271.802L1444.2 273.213L1444.94 272.541ZM215.818 271.708C214.921 272.694 214.026 273.683 213.134 274.673L213.875 275.344L216.559 272.379L215.818 271.708ZM1450.28 278.491C1449.4 277.495 1448.51 276.501 1447.62 275.509L1446.87 276.177L1447.58 276.968L1449.54 279.157L1450.28 278.491ZM210.464 277.651C209.577 278.646 208.691 279.643 207.809 280.642L208.556 281.306L211.212 278.315L210.464 277.651ZM1455.57 284.493C1454.7 283.488 1453.82 282.486 1452.94 281.485L1452.18 282.145L1454.82 285.152L1455.57 284.493ZM205.167 283.646C204.289 284.649 203.413 285.655 202.54 286.663L203.294 287.319L205.921 284.303L205.167 283.646ZM1460.8 290.546C1459.94 289.533 1459.07 288.522 1458.2 287.513L1457.44 288.167L1458.03 288.855L1460.05 291.198L1460.8 290.546ZM199.927 289.692C199.059 290.704 198.193 291.718 197.329 292.734L198.089 293.384L200.688 290.341L199.927 289.692ZM1465.98 296.65C1465.12 295.628 1464.26 294.608 1463.4 293.591L1462.63 294.236L1465.21 297.294L1465.98 296.65ZM194.745 295.789C193.886 296.809 193.029 297.831 192.175 298.856L192.942 299.498L195.511 296.431L194.745 295.789ZM1471.09 302.803C1470.25 301.773 1469.4 300.746 1468.54 299.72L1467.77 300.359L1468.95 301.776L1470.32 303.44L1471.09 302.803ZM189.62 301.936C188.772 302.963 187.926 303.993 187.082 305.025L187.855 305.66L190.393 302.57L189.62 301.936ZM1476.15 309.002C1475.31 307.965 1474.47 306.929 1473.63 305.896L1472.85 306.526L1475.37 309.632L1476.15 309.002ZM184.558 308.127C183.719 309.163 182.883 310.202 182.05 311.242L182.828 311.869L185.337 308.755L184.558 308.127ZM1481.14 315.25C1480.32 314.204 1479.49 313.161 1478.65 312.12L1477.87 312.742L1480.36 315.872L1481.14 315.25ZM179.555 314.369C178.726 315.413 177.9 316.459 177.076 317.508L177.861 318.127L180.34 314.988L179.555 314.369ZM1486.08 321.547C1485.26 320.493 1484.44 319.442 1483.62 318.392L1482.83 319.007L1485.29 322.162L1486.08 321.547ZM174.611 320.659C173.792 321.711 172.976 322.766 172.161 323.822L172.952 324.434L175.402 321.271L174.611 320.659ZM1490.96 327.892C1490.15 326.831 1489.34 325.771 1488.52 324.713L1487.73 325.321L1490.16 328.5L1490.96 327.892ZM169.727 326.997C168.918 328.058 168.111 329.12 167.307 330.185L168.103 330.789L170.523 327.602L169.727 326.997ZM1495.77 334.285C1494.97 333.215 1494.17 332.148 1493.37 331.083L1492.57 331.683L1494.97 334.884L1495.77 334.285ZM164.902 333.384C164.104 334.451 163.308 335.52 162.515 336.591L163.318 337.188L165.704 333.981L164.902 333.384ZM1500.52 340.717C1499.73 339.641 1498.94 338.567 1498.15 337.495L1497.35 338.087L1499.71 341.31L1500.52 340.717ZM160.144 339.81C159.356 340.885 158.57 341.962 157.787 343.041L158.595 343.63L160.952 340.4L160.144 339.81ZM1505.21 347.197C1504.43 346.113 1503.65 345.032 1502.87 343.952L1502.06 344.536L1504.4 347.782L1505.21 347.197ZM155.446 346.284C154.668 347.367 153.893 348.451 153.12 349.538L153.934 350.119L156.26 346.865L155.446 346.284ZM1509.84 353.724C1509.07 352.633 1508.3 351.543 1507.53 350.455L1506.71 351.031L1509.02 354.301L1509.84 353.724ZM150.81 352.804C150.042 353.894 149.277 354.987 148.515 356.081L149.334 356.655L151.629 353.377L150.81 352.804ZM1514.4 360.297C1513.65 359.198 1512.89 358.1 1512.13 357.005L1511.31 357.574L1513.58 360.866L1514.4 360.297ZM146.235 359.37C145.477 360.469 144.723 361.569 143.97 362.671L144.795 363.237L147.059 359.936L146.235 359.37ZM1518.91 366.914C1518.16 365.808 1517.41 364.704 1516.66 363.601L1515.84 364.162L1518.08 367.475L1518.91 366.914ZM141.722 365.983C140.976 367.087 140.233 368.192 139.492 369.3L140.322 369.858L142.552 366.54L141.722 365.983ZM1523.34 373.567C1522.61 372.454 1521.87 371.344 1521.13 370.235L1520.3 370.788L1522.51 374.12L1523.34 373.567ZM137.279 372.629C136.543 373.74 135.811 374.854 135.081 375.969L135.916 376.518L138.114 373.179L137.279 372.629ZM1527.71 380.264C1526.99 379.144 1526.26 378.026 1525.53 376.91L1524.7 377.455L1526.87 380.809L1527.71 380.264ZM132.898 379.32C132.173 380.438 131.451 381.559 130.731 382.682L131.572 383.224L133.739 379.861L132.898 379.32ZM1532.02 387.006C1531.31 385.879 1530.59 384.753 1529.88 383.63L1529.03 384.166L1531.18 387.543L1532.02 387.006ZM128.58 386.055C127.866 387.182 127.154 388.31 126.445 389.44L127.291 389.973L129.426 386.589L128.58 386.055ZM1536.27 393.792C1535.56 392.657 1534.86 391.524 1534.15 390.393L1533.3 390.922L1535.42 394.32L1536.27 393.792ZM124.326 392.835C123.622 393.969 122.921 395.104 122.223 396.241L123.074 396.767L125.177 393.36L124.326 392.835ZM1540.45 400.619C1539.76 399.478 1539.06 398.339 1538.37 397.201L1537.51 397.721L1539.59 401.139L1540.45 400.619ZM120.136 399.658C119.444 400.797 118.755 401.937 118.069 403.078L118.925 403.596L120.992 400.176L120.136 399.658ZM1544.56 407.476C1543.88 406.33 1543.19 405.185 1542.51 404.042L1541.65 404.554L1543.7 407.988L1544.56 407.476ZM116.019 406.509C115.338 407.655 114.66 408.802 113.984 409.951L114.845 410.459L116.879 407.018L116.019 406.509ZM1548.6 414.375C1547.93 413.222 1547.26 412.07 1546.59 410.92L1545.72 411.424L1547.73 414.879L1548.6 414.375ZM111.966 413.403C111.296 414.555 110.628 415.709 109.964 416.865L110.829 417.366L112.832 413.903L111.966 413.403ZM1552.58 421.317C1551.92 420.156 1551.26 418.998 1550.6 417.841L1549.73 418.336L1551.71 421.812L1552.58 421.317ZM107.978 420.338C107.318 421.498 106.662 422.659 106.008 423.822L106.879 424.314L108.848 420.83L107.978 420.338ZM1556.49 428.3C1555.84 427.133 1555.2 425.967 1554.54 424.803L1553.67 425.29L1555.62 428.787L1556.49 428.3ZM104.055 427.316C103.406 428.482 102.761 429.65 102.118 430.82L102.993 431.304L104.93 427.8L104.055 427.316ZM1560.34 435.322C1559.7 434.149 1559.06 432.977 1558.42 431.807L1557.55 432.286L1559.46 435.801L1560.34 435.322ZM100.197 434.335C99.5615 435.505 98.9286 436.676 98.2985 437.85L99.1783 438.325L101.077 434.81L100.197 434.335ZM1564.11 442.368C1563.49 441.19 1562.86 440.014 1562.23 438.84L1561.35 439.31L1563.23 442.837L1564.11 442.368ZM96.4162 441.375C95.7916 442.551 95.1697 443.73 94.5505 444.91L95.4349 445.377L97.3006 441.842L96.4162 441.375ZM1567.82 449.453C1567.2 448.269 1566.59 447.087 1565.97 445.906L1565.08 446.367L1566.93 449.915L1567.82 449.453ZM92.7014 448.455C92.0877 449.638 91.4769 450.823 90.8688 452.01L91.7576 452.468L93.5902 448.913L92.7014 448.455ZM1571.45 456.579C1570.85 455.388 1570.25 454.199 1569.64 453.011L1568.75 453.464L1570.56 457.032L1571.45 456.579ZM89.0528 455.575C88.4503 456.765 87.8506 457.957 87.2536 459.15L88.1468 459.6L89.9461 456.025L89.0528 455.575ZM1575.03 463.744C1574.44 462.547 1573.84 461.351 1573.25 460.157L1572.35 460.601L1574.13 464.188L1575.03 463.744ZM85.4711 462.735C84.8797 463.931 84.2912 465.129 83.7054 466.329L84.603 466.77L86.3687 463.176L85.4711 462.735ZM1578.53 470.946C1577.95 469.742 1577.37 468.541 1576.79 467.342L1575.89 467.777L1577.63 471.381L1578.53 470.946ZM81.9566 469.933C81.3783 471.133 80.8029 472.333 80.2302 473.536L81.132 473.968L82.8584 470.366L81.9566 469.933ZM1581.96 478.163C1581.39 476.957 1580.82 475.752 1580.25 474.55L1579.35 474.976L1581.05 478.59L1581.96 478.163ZM78.5211 477.147C77.9542 478.352 77.3901 479.559 76.8288 480.767L77.7347 481.191L79.427 477.57L78.5211 477.147ZM1585.31 485.419C1584.76 484.207 1584.2 482.996 1583.64 481.787L1582.74 482.204L1584.41 485.837L1585.31 485.419ZM75.1535 484.397C74.5979 485.609 74.0451 486.822 73.4952 488.036L74.4052 488.451L76.0635 484.812L75.1535 484.397ZM1588.6 492.713C1588.06 491.494 1587.52 490.277 1586.97 489.061L1586.06 489.47L1587.69 493.122L1588.6 492.713ZM71.8539 491.685C71.3096 492.903 70.7682 494.122 70.2297 495.343L71.1436 495.749L72.7678 492.091L71.8539 491.685ZM1591.83 500.043C1591.29 498.818 1590.76 497.595 1590.22 496.373L1589.31 496.773L1590.91 500.443L1591.83 500.043ZM68.6226 499.01C68.0898 500.234 67.5598 501.46 67.0327 502.687L67.9506 503.084L69.5405 499.407L68.6226 499.01ZM1594.98 507.408C1594.46 506.178 1593.94 504.949 1593.41 503.722L1592.49 504.113L1594.06 507.8L1594.98 507.408ZM65.4601 506.373C64.9406 507.598 64.4239 508.826 63.9102 510.054L64.8318 510.442L66.3818 506.761L65.4601 506.373ZM1598.05 514.781C1597.54 513.549 1597.03 512.319 1596.52 511.09L1595.6 511.473L1597.12 515.164L1598.05 514.781ZM62.3784 513.743C61.8707 514.974 61.3659 516.206 60.8639 517.44L61.7893 517.819L63.3038 514.122L62.3784 513.743ZM1601.05 522.19C1600.56 520.952 1600.06 519.716 1599.56 518.481L1598.63 518.855L1600.12 522.563L1601.05 522.19ZM59.3667 521.146C58.8705 522.383 58.3772 523.622 57.8868 524.862L58.8158 525.232L60.2957 521.516L59.3667 521.146ZM1603.98 529.634C1603.5 528.39 1603.01 527.148 1602.53 525.908L1601.59 526.272L1603.05 529.998L1603.98 529.634ZM56.4244 528.586C55.9398 529.828 55.4581 531.072 54.9794 532.318L55.9119 532.679L57.3569 528.947L56.4244 528.586ZM1606.85 537.113C1606.37 535.863 1605.9 534.616 1605.42 533.369L1604.49 533.724L1605.91 537.468L1606.85 537.113ZM53.5518 536.06C53.0789 537.308 52.6089 538.558 52.1419 539.809L53.0779 540.161L54.4879 536.411L53.5518 536.06ZM1609.64 544.626C1609.18 543.371 1608.72 542.117 1608.25 540.865L1607.31 541.211L1608.7 544.972L1609.64 544.626ZM50.7495 543.568C50.2899 544.818 49.8333 546.069 49.3796 547.322L50.319 547.665L51.6889 543.911L50.7495 543.568ZM1612.35 552.137C1611.9 550.882 1611.45 549.629 1611 548.377L1610.06 548.714L1611.41 552.474L1612.35 552.137ZM48.029 551.079C47.5818 552.333 47.1375 553.588 46.6961 554.844L47.6388 555.178L48.9717 551.413L48.029 551.079ZM1614.99 559.681C1614.55 558.421 1614.12 557.162 1613.68 555.905L1612.73 556.232L1614.04 560.009L1614.99 559.681ZM45.3808 558.618C44.9453 559.878 44.5127 561.138 44.0831 562.4L45.029 562.725L46.3266 558.943L45.3808 558.618ZM1617.55 567.258C1617.13 565.992 1616.71 564.728 1616.28 563.465L1615.33 563.784L1616.61 567.576L1617.55 567.258ZM42.8032 566.191C42.3795 567.455 41.9588 568.721 41.5411 569.989L42.4901 570.304L43.7522 566.506L42.8032 566.191ZM1620.05 574.867C1619.64 573.596 1619.22 572.326 1618.81 571.058L1617.86 571.368L1619.1 575.177L1620.05 574.867ZM40.2968 573.796C39.885 575.066 39.4761 576.337 39.0703 577.61L40.0223 577.916L41.2488 574.102L40.2968 573.796ZM1622.47 582.509C1622.08 581.233 1621.68 579.958 1621.27 578.684L1620.32 578.984L1621.52 582.809L1622.47 582.509ZM37.8618 581.433C37.4632 582.704 37.0675 583.977 36.6749 585.251L37.6298 585.548L38.8167 581.729L37.8618 581.433ZM1624.82 590.143C1624.43 588.869 1624.04 587.596 1623.65 586.324L1622.7 586.615L1623.86 590.434L1624.82 590.143ZM35.5089 589.068C35.1232 590.342 34.7404 591.617 34.3607 592.893L35.3185 593.18L36.4666 589.356L35.5089 589.068ZM1627.08 597.804C1626.71 596.524 1626.34 595.246 1625.96 593.969L1625 594.251L1626.12 598.085L1627.08 597.804ZM33.2305 596.725C32.8567 598.004 32.486 599.284 32.1182 600.565L33.0787 600.843L34.191 597.003L33.2305 596.725ZM1629.28 605.496C1628.92 604.211 1628.56 602.928 1628.19 601.646L1627.23 601.918L1628.32 605.768L1629.28 605.496ZM31.024 604.412C30.6622 605.696 30.3035 606.981 29.9478 608.267L30.911 608.536L31.9872 604.681L31.024 604.412ZM1631.4 613.217C1631.06 611.928 1630.71 610.64 1630.35 609.353L1629.39 609.616L1630.44 613.48L1631.4 613.217ZM28.8897 612.13C28.5401 613.419 28.1934 614.709 27.8498 616L28.8156 616.26L29.8555 612.39L28.8897 612.13ZM1633.46 620.969C1633.12 619.675 1632.78 618.382 1632.44 617.09L1631.47 617.343L1632.49 621.223L1633.46 620.969ZM26.8281 619.878C26.4913 621.169 26.1575 622.461 25.8267 623.755L26.7949 624.005L27.7964 620.128L26.8281 619.878ZM1635.42 628.71C1635.1 627.419 1634.78 626.13 1634.45 624.841L1633.48 625.085L1634.45 628.954L1635.42 628.71ZM24.8479 627.622C24.5246 628.912 24.2044 630.203 23.8872 631.496L24.8578 631.736L25.8185 627.862L24.8479 627.622ZM1637.32 636.469C1637.01 635.174 1636.7 633.88 1636.38 632.586L1635.41 632.821L1636.35 636.704L1637.32 636.469ZM22.9446 635.377C22.6335 636.672 22.3254 637.968 22.0203 639.265L22.9932 639.496L23.9175 635.608L22.9446 635.377ZM1639.14 644.257C1638.84 642.957 1638.54 641.658 1638.24 640.36L1637.26 640.585L1638.16 644.482L1639.14 644.257ZM21.1142 643.16C20.8153 644.46 20.5194 645.761 20.2265 647.063L21.2016 647.285L22.0893 643.382L21.1142 643.16ZM1640.88 652.073C1640.6 650.768 1640.31 649.464 1640.02 648.161L1639.04 648.377L1639.91 652.289L1640.88 652.073ZM19.3571 650.972C19.0704 652.276 18.7867 653.582 18.5061 654.888L19.4833 655.101L20.3343 651.184L19.3571 650.972ZM1642.56 659.916C1642.28 658.606 1642.01 657.298 1641.73 655.991L1640.75 656.197L1641.58 660.122L1642.56 659.916ZM17.6736 658.811C17.3991 660.12 17.1278 661.43 16.8595 662.741L17.8388 662.944L18.6528 659.014L17.6736 658.811ZM1644.15 667.748C1643.89 666.444 1643.63 665.141 1643.36 663.839L1642.38 664.036L1643.17 667.945L1644.15 667.748ZM16.0699 666.648C15.8097 667.952 15.5526 669.256 15.2985 670.562L16.2797 670.756L17.051 666.842L16.0699 666.648ZM1645.66 675.587C1645.42 674.278 1645.17 672.971 1644.92 671.664L1643.93 671.852L1644.68 675.774L1645.66 675.587ZM14.5456 674.483C14.2976 675.791 14.0528 677.1 13.811 678.41L14.794 678.594L15.5285 674.667L14.5456 674.483ZM1647.1 683.451C1646.87 682.138 1646.63 680.826 1646.39 679.516L1645.41 679.693L1646.12 683.629L1647.1 683.451ZM13.0949 682.343C12.8593 683.655 12.6268 684.969 12.3973 686.283L13.382 686.457L14.0796 682.518L13.0949 682.343ZM1648.47 691.341C1648.25 690.024 1648.02 688.708 1647.8 687.393L1646.81 687.561L1647.48 691.509L1648.47 691.341ZM11.7183 690.229C11.495 691.546 11.2749 692.863 11.0578 694.182L12.0441 694.347L12.7046 690.394L11.7183 690.229ZM1649.76 699.256C1649.55 697.935 1649.34 696.614 1649.12 695.295L1648.14 695.454L1648.77 699.414L1649.76 699.256ZM10.416 698.141C10.2052 699.462 9.99752 700.783 9.79293 702.106L10.7808 702.261L11.4039 698.296L10.416 698.141ZM1650.97 707.165C1650.78 705.85 1650.58 704.536 1650.38 703.223L1649.39 703.372L1649.98 707.315L1650.97 707.165ZM9.19169 706.057C8.995 707.37 8.80139 708.685 8.61086 710.001L9.60019 710.146L10.181 706.202L9.19169 706.057ZM1652.11 715.063C1651.92 713.745 1651.74 712.427 1651.55 711.111L1650.56 711.251L1651.12 715.202L1652.11 715.063ZM8.04856 713.95C7.86421 715.268 7.68295 716.587 7.5048 717.906L8.49548 718.043L9.03923 714.087L8.04856 713.95ZM1653.16 722.984C1652.99 721.662 1652.82 720.341 1652.64 719.02L1651.65 719.15L1652.17 723.114L1653.16 722.984ZM6.97966 721.868C6.80771 723.19 6.63888 724.512 6.47316 725.836L7.46511 725.963L7.9716 721.995L6.97966 721.868ZM1654.15 730.928C1653.99 729.602 1653.83 728.277 1653.67 726.953L1652.67 727.074L1653.16 731.049L1654.15 730.928ZM5.98537 729.809C5.82589 731.135 5.66954 732.461 5.51632 733.789L6.50944 733.906L6.97849 729.926L5.98537 729.809ZM1655.06 738.896C1654.91 737.566 1654.76 736.237 1654.61 734.909L1653.62 735.02L1654.06 739.006L1655.06 738.896ZM5.06605 737.774C4.9191 739.103 4.77529 740.433 4.63463 741.764L5.62883 741.872L6.06026 737.881L5.06605 737.774ZM1655.89 746.869C1655.76 745.541 1655.62 744.214 1655.48 742.888L1654.49 742.989L1654.89 746.97L1655.89 746.869ZM4.22267 745.755C4.08957 747.075 3.95957 748.396 3.83267 749.718L4.82786 749.816L5.21787 745.852L4.22267 745.755ZM1656.64 754.805C1656.52 753.481 1656.4 752.157 1656.27 750.835L1655.28 750.926L1655.64 754.897L1656.64 754.805ZM3.46128 753.688C3.34058 755.012 3.223 756.337 3.10854 757.662L4.10462 757.751L4.45736 753.776L3.46128 753.688ZM1657.32 762.763C1657.21 761.435 1657.1 760.108 1656.99 758.782L1655.99 758.864L1656.32 762.846L1657.32 762.763ZM2.7745 761.643C2.66628 762.97 2.56118 764.299 2.45921 765.628L3.45609 765.707L3.77138 761.721L2.7745 761.643ZM1657.92 770.742C1657.82 769.411 1657.73 768.08 1657.63 766.75L1656.63 766.823L1656.92 770.815L1657.92 770.742ZM2.1627 769.619C2.067 770.95 1.97445 772.282 1.88503 773.614L2.88263 773.684L3.1603 769.688L2.1627 769.619ZM1658.44 778.742C1658.36 777.407 1658.28 776.073 1658.19 774.74L1657.19 774.803L1657.45 778.805L1658.44 778.742ZM1.62624 777.615C1.54313 778.95 1.46317 780.285 1.38637 781.622L2.38458 781.681L2.62445 777.675L1.62624 777.615ZM1658.89 786.762C1658.82 785.424 1658.75 784.086 1658.68 782.75L1657.68 782.803L1657.89 786.816L1658.89 786.762ZM1.16547 785.633C1.09544 786.962 1.02854 788.293 0.964769 789.624L1.96351 789.674L2.16421 785.683L1.16547 785.633ZM1659.26 794.723C1659.21 793.396 1659.15 792.069 1659.09 790.743L1658.09 790.787L1658.26 794.767L1659.26 794.723ZM0.783651 793.603C0.726391 794.93 0.672247 796.258 0.621226 797.586L1.6204 797.627L1.78282 793.643L0.783651 793.603ZM1659.56 802.697C1659.51 801.366 1659.47 800.036 1659.42 798.708L1658.42 798.742L1658.56 802.732L1659.56 802.697ZM0.477537 801.574C0.432771 802.905 0.391134 804.236 0.352635 805.567L1.35215 805.599L1.47705 801.606L0.477537 801.574ZM1659.78 810.691C1659.75 809.357 1659.72 808.024 1659.68 806.692L1658.68 806.717L1658.78 810.716L1659.78 810.691ZM0.246555 809.565C0.214336 810.898 0.185261 812.233 0.159338 813.568L1.15911 813.589L1.24632 809.587L0.246555 809.565ZM1659.92 818.703C1659.91 817.366 1659.89 816.03 1659.86 814.694L1658.86 814.71L1658.92 818.718L1659.92 818.703ZM0.0910321 817.575C0.0714201 818.911 0.0549668 820.248 0.0416792 821.586L1.04161 821.599L1.09096 817.587L0.0910321 817.575ZM1659.99 826.733C1659.99 825.393 1659.98 824.054 1659.97 822.716L1658.97 822.722L1658.99 826.739L1659.99 826.733ZM0.0113211 825.602C0.00437207 826.942 0.000595988 828.282 0 829.623L0.999996 829.626L1.01132 825.605L0.0113211 825.602ZM1659.99 834.021C1660 832.682 1660 831.341 1660 830L1659 829.998L1658.99 834.019L1659.99 834.021ZM0.00774879 833.645C0.0135083 834.984 0.022442 836.323 0.0345427 837.661L1.0345 837.655L1.00773 833.638L0.00774879 833.645ZM1659.91 842.05C1659.93 840.713 1659.95 839.376 1659.96 838.038L1658.96 838.026L1658.91 842.038L1659.91 842.05ZM0.0803402 841.674C0.0987685 843.011 0.120357 844.347 0.145098 845.682L1.14499 845.666L1.08021 841.658L0.0803402 841.674ZM1659.76 850.06C1659.79 848.727 1659.82 847.392 1659.85 846.057L1658.85 846.036L1658.76 850.039L1659.76 850.06ZM0.228775 849.685C0.259814 851.019 0.293999 852.352 0.331322 853.684L1.33095 853.658L1.22845 849.66L0.228775 849.685ZM1659.53 858.052C1659.58 856.721 1659.62 855.39 1659.66 854.058L1658.66 854.027L1658.54 858.021L1659.53 858.052ZM0.452703 857.678C0.496298 859.008 0.543024 860.338 0.592875 861.667L1.59232 861.632L1.45209 857.643L0.452703 857.678ZM1659.23 866.024C1659.29 864.697 1659.34 863.369 1659.39 862.04L1658.39 862L1658.23 865.984L1659.23 866.024ZM0.751792 865.651C0.807883 866.979 0.867092 868.305 0.929411 869.631L1.92837 869.586L1.7508 865.607L0.751792 865.651ZM1658.85 873.991C1658.92 872.663 1658.99 871.333 1659.05 870.003L1658.05 869.954L1657.86 873.941L1658.85 873.991ZM1.12619 873.615C1.19547 874.953 1.26792 876.291 1.34353 877.627L2.34208 877.573L2.12472 873.561L1.12619 873.615ZM1658.4 882.01C1658.48 880.674 1658.56 879.339 1658.64 878.003L1657.64 877.943L1657.4 881.95L1658.4 882.01ZM1.57985 881.634C1.66178 882.969 1.74687 884.303 1.8351 885.636L2.83304 885.573L2.57782 881.571L1.57985 881.634ZM1657.86 890.007C1657.96 888.676 1658.05 887.344 1658.14 886.011L1657.14 885.942L1656.87 889.938L1657.86 890.007ZM2.10923 889.633C2.20376 890.964 2.30142 892.295 2.40222 893.625L3.39952 893.552L3.10655 889.56L2.10923 889.633ZM1657.26 897.984C1657.36 896.657 1657.47 895.328 1657.57 893.998L1656.57 893.92L1656.26 897.906L1657.26 897.984ZM2.714 897.611C2.82105 898.939 2.93123 900.266 3.04452 901.592L4.04111 901.509L3.71056 897.528L2.714 897.611ZM1656.57 905.94C1656.69 904.616 1656.81 903.291 1656.92 901.965L1655.93 901.877L1655.58 905.852L1656.57 905.94ZM3.39376 905.568C3.51328 906.892 3.63592 908.216 3.76166 909.538L4.75737 909.446L4.38949 905.476L3.39376 905.568ZM1655.81 913.874C1655.95 912.554 1656.08 911.232 1656.2 909.91L1655.21 909.812L1654.82 913.777L1655.81 913.874ZM4.14818 913.503C4.28095 914.832 4.41685 916.16 4.55589 917.487L5.55069 917.386L5.14299 913.401L4.14818 913.503ZM1654.98 921.853C1655.12 920.523 1655.26 919.193 1655.4 917.862L1654.41 917.755L1653.98 921.746L1654.98 921.853ZM4.98376 921.479C5.12954 922.809 5.27846 924.137 5.43051 925.465L6.42424 925.354L5.97756 921.368L4.98376 921.479ZM1654.06 929.818C1654.22 928.492 1654.38 927.166 1654.53 925.838L1653.53 925.722L1653.07 929.702L1654.06 929.818ZM5.89605 929.445C6.05436 930.771 6.21579 932.096 6.38034 933.42L7.37307 933.299L6.8887 929.325L5.89605 929.445ZM1653.07 937.76C1653.24 936.439 1653.41 935.116 1653.57 933.792L1652.58 933.666L1652.08 937.634L1653.07 937.76ZM6.88332 937.389C7.0541 938.711 7.22798 940.032 7.40498 941.352L8.3964 941.221L7.87477 937.258L6.88332 937.389ZM1652 945.679C1652.19 944.361 1652.37 943.042 1652.55 941.723L1651.55 941.587L1651.01 945.543L1652 945.679ZM7.94525 945.309C8.12844 946.627 8.31472 947.944 8.50409 949.26L9.49428 949.12L8.93539 945.169L7.94525 945.309ZM1650.86 953.574C1651.06 952.26 1651.25 950.946 1651.44 949.63L1650.45 949.484L1649.87 953.429L1650.86 953.574ZM9.08145 953.205C9.27729 954.521 9.47623 955.836 9.67825 957.15L10.6669 957.001L10.0702 953.055L9.08145 953.205ZM1649.64 961.488C1649.85 960.167 1650.06 958.845 1650.26 957.522L1649.28 957.367L1648.66 961.333L1649.64 961.488ZM10.2978 961.117C10.5075 962.438 10.7203 963.758 10.9362 965.077L11.9234 964.918L11.2851 960.957L10.2978 961.117ZM1648.34 969.401C1648.57 968.084 1648.79 966.766 1649 965.447L1648.02 965.283L1647.36 969.236L1648.34 969.401ZM11.5931 969.03C11.8152 970.347 12.0404 971.663 12.2686 972.978L13.2543 972.809L12.5788 968.862L11.5931 969.03ZM1646.97 977.288C1647.21 975.976 1647.44 974.662 1647.67 973.347L1646.68 973.174L1645.99 977.114L1646.97 977.288ZM12.9628 976.919C13.1973 978.232 13.4348 979.543 13.6754 980.854L14.6594 980.676L13.9468 976.741L12.9628 976.919ZM1645.52 985.15C1645.77 983.842 1646.01 982.532 1646.26 981.222L1645.27 981.039L1644.54 984.966L1645.52 985.15ZM14.4065 984.782C14.6533 986.09 14.9031 987.398 15.156 988.704L16.1383 988.516L15.3887 984.594L14.4065 984.782ZM1644 992.986C1644.26 991.682 1644.52 990.377 1644.77 989.071L1643.79 988.878L1643.02 992.793L1644 992.986ZM15.9239 992.619C16.183 993.923 16.445 995.226 16.7102 996.527L17.6905 996.33L16.9043 992.422L15.9239 992.619ZM1642.4 1000.82C1642.68 999.513 1642.95 998.204 1643.22 996.893L1642.24 996.691L1641.42 1000.62L1642.4 1000.82ZM17.5196 1000.45C17.7929 1001.76 18.0692 1003.07 18.3487 1004.38L19.3271 1004.17L18.498 1000.25L17.5196 1000.45ZM1640.72 1008.66C1641.01 1007.35 1641.29 1006.05 1641.57 1004.74L1640.6 1004.53L1639.75 1008.45L1640.72 1008.66ZM19.1962 1008.29C19.4818 1009.6 19.7705 1010.9 20.0622 1012.21L21.0386 1011.99L20.1726 1008.08L19.1962 1008.29ZM1638.97 1016.47C1639.27 1015.17 1639.56 1013.87 1639.86 1012.57L1638.88 1012.35L1637.99 1016.25L1638.97 1016.47ZM20.9465 1016.11C21.2444 1017.41 21.5452 1018.71 21.8492 1020.01L22.8234 1019.78L21.9207 1015.88L20.9465 1016.11ZM1637.14 1024.26C1637.45 1022.96 1637.76 1021.67 1638.07 1020.37L1637.09 1020.14L1636.17 1024.03L1637.14 1024.26ZM22.7701 1023.9C23.0801 1025.19 23.3931 1026.48 23.7092 1027.78L24.6812 1027.54L23.742 1023.66L22.7701 1023.9ZM1635.24 1032.02C1635.57 1030.73 1635.89 1029.43 1636.2 1028.14L1635.23 1027.9L1634.27 1031.78L1635.24 1032.02ZM24.6665 1031.65C24.9886 1032.94 25.3138 1034.23 25.642 1035.52L26.6116 1035.28L25.6362 1031.41L24.6665 1031.65ZM1633.27 1039.76C1633.6 1038.47 1633.94 1037.18 1634.27 1035.88L1633.3 1035.63L1632.3 1039.51L1633.27 1039.76ZM26.6388 1039.4C26.9752 1040.69 27.3146 1041.98 27.6571 1043.27L28.6243 1043.02L27.606 1039.14L26.6388 1039.4ZM1631.21 1047.51C1631.56 1046.22 1631.9 1044.93 1632.25 1043.64L1631.28 1043.38L1630.24 1047.25L1631.21 1047.51ZM28.6936 1047.15C29.0421 1048.43 29.3936 1049.72 29.7482 1051.01L30.7129 1050.75L29.6583 1046.88L28.6936 1047.15ZM1629.08 1055.23C1629.44 1053.94 1629.8 1052.66 1630.15 1051.37L1629.19 1051.1L1628.11 1054.96L1629.08 1055.23ZM30.821 1054.87C31.1816 1056.15 31.5453 1057.43 31.9119 1058.72L32.874 1058.44L31.7831 1054.59L30.821 1054.87ZM1626.87 1062.92C1627.25 1061.64 1627.62 1060.36 1627.98 1059.08L1627.02 1058.8L1625.91 1062.64L1626.87 1062.92ZM33.0208 1062.56C33.3934 1063.84 33.769 1065.11 34.1477 1066.39L35.107 1066.11L33.9802 1062.27L33.0208 1062.56ZM1624.6 1070.57C1624.98 1069.3 1625.37 1068.03 1625.75 1066.75L1624.79 1066.46L1623.64 1070.29L1624.6 1070.57ZM35.2924 1070.22C35.677 1071.49 36.0646 1072.76 36.4551 1074.03L37.4117 1073.74L36.2491 1069.92L35.2924 1070.22ZM1622.25 1078.21C1622.65 1076.94 1623.04 1075.67 1623.44 1074.39L1622.48 1074.09L1621.3 1077.91L1622.25 1078.21ZM37.6374 1077.85C38.0362 1079.13 38.4379 1080.4 38.8426 1081.67L39.7963 1081.37L38.5912 1077.55L37.6374 1077.85ZM1619.82 1085.85C1620.23 1084.58 1620.64 1083.31 1621.04 1082.03L1620.09 1081.73L1618.87 1085.54L1619.82 1085.85ZM40.0657 1085.49C40.4764 1086.76 40.89 1088.03 41.3066 1089.3L42.2574 1088.99L41.0164 1085.18L40.0657 1085.49ZM1617.32 1093.45C1617.74 1092.19 1618.16 1090.92 1618.58 1089.65L1617.63 1089.34L1616.37 1093.14L1617.32 1093.45ZM42.5654 1093.1C42.988 1094.36 43.4135 1095.63 43.842 1096.89L44.7897 1096.57L43.5132 1092.78L42.5654 1093.1ZM1614.74 1101.03C1615.18 1099.77 1615.61 1098.51 1616.04 1097.24L1615.09 1096.92L1613.8 1100.7L1614.74 1101.03ZM45.1364 1100.67C45.5708 1101.93 46.0081 1103.19 46.4484 1104.45L47.3929 1104.12L46.0809 1100.35L45.1364 1100.67ZM1612.1 1108.57C1612.54 1107.31 1612.99 1106.06 1613.43 1104.8L1612.48 1104.47L1611.15 1108.24L1612.1 1108.57ZM47.778 1108.22C48.2242 1109.47 48.6733 1110.72 49.1253 1111.98L50.0667 1111.64L48.7194 1107.88L47.778 1108.22ZM1609.38 1116.08C1609.84 1114.83 1610.29 1113.58 1610.75 1112.33L1609.81 1111.98L1608.44 1115.74L1609.38 1116.08ZM50.4907 1115.73C50.9507 1116.98 51.4138 1118.24 51.8797 1119.49L52.8178 1119.14L51.4287 1115.38L50.4907 1115.73ZM1606.58 1123.59C1607.05 1122.34 1607.52 1121.09 1607.99 1119.84L1607.05 1119.49L1605.64 1123.24L1606.58 1123.59ZM53.2864 1123.24C53.7582 1124.49 54.233 1125.74 54.7106 1126.98L55.6453 1126.63L54.221 1122.88L53.2864 1123.24ZM1603.71 1131.07C1604.2 1129.82 1604.68 1128.58 1605.15 1127.33L1604.22 1126.97L1602.78 1130.7L1603.71 1131.07ZM56.1524 1130.72C56.6358 1131.96 57.1222 1133.2 57.6115 1134.44L58.5427 1134.08L57.0835 1130.35L56.1524 1130.72ZM1600.77 1138.51C1601.27 1137.27 1601.76 1136.03 1602.25 1134.79L1601.32 1134.42L1599.84 1138.14L1600.77 1138.51ZM59.0882 1138.16C59.5833 1139.4 60.0813 1140.63 60.5821 1141.87L61.5097 1141.49L60.0157 1137.78L59.0882 1138.16ZM1597.76 1145.91C1598.27 1144.68 1598.78 1143.45 1599.28 1142.21L1598.35 1141.83L1596.84 1145.53L1597.76 1145.91ZM62.0934 1145.57C62.6 1146.8 63.1095 1148.03 63.6219 1149.26L64.5458 1148.87L63.0173 1145.18L62.0934 1145.57ZM1594.69 1153.28C1595.21 1152.06 1595.72 1150.83 1596.23 1149.6L1595.31 1149.21L1593.76 1152.89L1594.69 1153.28ZM65.1677 1152.94C65.6879 1154.17 66.2109 1155.4 66.7369 1156.62L67.657 1156.23L66.0878 1152.55L65.1677 1152.94ZM1591.53 1160.65C1592.06 1159.42 1592.59 1158.2 1593.12 1156.97L1592.2 1156.57L1590.61 1160.25L1591.53 1160.65ZM68.3235 1160.3C68.8553 1161.53 69.3899 1162.75 69.9273 1163.97L70.8436 1163.57L69.2398 1159.9L68.3235 1160.3ZM1588.3 1167.97C1588.84 1166.75 1589.38 1165.54 1589.92 1164.31L1589.01 1163.91L1587.38 1167.57L1588.3 1167.97ZM71.5484 1167.63C72.0915 1168.85 72.6376 1170.07 73.1864 1171.28L74.0988 1170.87L72.4607 1167.22L71.5484 1167.63ZM1585 1175.26C1585.55 1174.05 1586.11 1172.83 1586.66 1171.62L1585.75 1171.21L1584.09 1174.85L1585 1175.26ZM74.8416 1174.92C75.3961 1176.13 75.9535 1177.34 76.5137 1178.55L77.4221 1178.14L75.7499 1174.5L74.8416 1174.92ZM1581.64 1182.51C1582.2 1181.31 1582.77 1180.1 1583.33 1178.89L1582.42 1178.47L1580.73 1182.09L1581.64 1182.51ZM78.2028 1182.18C78.7686 1183.38 79.3373 1184.59 79.9088 1185.79L80.813 1185.36L79.1071 1181.75L78.2028 1182.18ZM1578.21 1189.73C1578.78 1188.53 1579.36 1187.33 1579.93 1186.13L1579.03 1185.69L1577.3 1189.3L1578.21 1189.73ZM81.6316 1189.39C82.2104 1190.59 82.7921 1191.8 83.3765 1193L84.2766 1192.56L82.5317 1188.96L81.6316 1189.39ZM1574.69 1196.93C1575.29 1195.73 1575.87 1194.53 1576.46 1193.33L1575.56 1192.89L1573.8 1196.49L1574.69 1196.93ZM85.1391 1196.59C85.7294 1197.79 86.3225 1198.99 86.9184 1200.18L87.8142 1199.73L86.0349 1196.15L85.1391 1196.59ZM1571.12 1204.09C1571.72 1202.9 1572.32 1201.71 1572.91 1200.51L1572.02 1200.07L1570.22 1203.64L1571.12 1204.09ZM88.7145 1203.76C89.316 1204.95 89.9203 1206.14 90.5274 1207.32L91.4188 1206.87L89.606 1203.3L88.7145 1203.76ZM1567.47 1211.21C1568.08 1210.03 1568.69 1208.84 1569.3 1207.66L1568.41 1207.2L1566.58 1210.75L1567.47 1211.21ZM92.3569 1210.88C92.9694 1212.06 93.5848 1213.25 94.2029 1214.43L95.0899 1213.97L93.2439 1210.42L92.3569 1210.88ZM1563.76 1218.29C1564.38 1217.12 1565 1215.94 1565.62 1214.76L1564.74 1214.29L1562.87 1217.83L1563.76 1218.29ZM96.0655 1217.96C96.6891 1219.14 97.3155 1220.32 97.9446 1221.49L98.8272 1221.02L96.948 1217.49L96.0655 1217.96ZM1559.98 1225.34C1560.62 1224.17 1561.25 1222.99 1561.88 1221.82L1561 1221.35L1559.1 1224.86L1559.98 1225.34ZM99.8401 1225.01C100.476 1226.18 101.115 1227.35 101.757 1228.52L102.635 1228.04L100.718 1224.53L99.8401 1225.01ZM1556.13 1232.36C1556.78 1231.19 1557.42 1230.02 1558.06 1228.85L1557.19 1228.37L1555.25 1231.87L1556.13 1232.36ZM103.691 1232.03C104.338 1233.2 104.988 1234.36 105.641 1235.52L106.514 1235.04L104.564 1231.54L103.691 1232.03ZM1552.21 1239.34C1552.87 1238.18 1553.52 1237.01 1554.18 1235.85L1553.3 1235.36L1551.34 1238.84L1552.21 1239.34ZM107.608 1239.01C108.266 1240.17 108.927 1241.33 109.59 1242.49L110.459 1241.99L108.476 1238.51L107.608 1239.01ZM1548.22 1246.27C1548.89 1245.12 1549.56 1243.97 1550.22 1242.81L1549.36 1242.31L1547.36 1245.77L1548.22 1246.27ZM111.59 1245.95C112.259 1247.1 112.93 1248.25 113.605 1249.4L114.469 1248.9L112.453 1245.45L111.59 1245.95ZM1544.17 1253.17C1544.85 1252.02 1545.53 1250.88 1546.21 1249.73L1545.34 1249.22L1543.31 1252.66L1544.17 1253.17ZM115.636 1252.85C116.316 1253.99 116.999 1255.14 117.684 1256.28L118.543 1255.77L116.495 1252.33L115.636 1252.85ZM1540.06 1260.02C1540.75 1258.88 1541.44 1257.74 1542.12 1256.6L1541.27 1256.08L1539.2 1259.51L1540.06 1260.02ZM119.747 1259.7C120.439 1260.84 121.134 1261.98 121.831 1263.12L122.685 1262.6L120.601 1259.18L119.747 1259.7ZM1535.87 1266.85C1536.58 1265.72 1537.28 1264.58 1537.97 1263.44L1537.12 1262.91L1535.02 1266.32L1535.87 1266.85ZM123.931 1266.53C124.634 1267.66 125.339 1268.8 126.047 1269.93L126.896 1269.4L124.78 1266L123.931 1266.53ZM1531.62 1273.63C1532.33 1272.5 1533.05 1271.37 1533.75 1270.24L1532.91 1269.71L1530.77 1273.09L1531.62 1273.63ZM128.179 1273.31C128.893 1274.44 129.609 1275.56 130.327 1276.69L131.171 1276.15L129.023 1272.77L128.179 1273.31ZM1527.31 1280.37C1528.03 1279.25 1528.75 1278.13 1529.47 1277L1528.63 1276.46L1526.46 1279.82L1527.31 1280.37ZM132.491 1280.05C133.215 1281.17 133.941 1282.29 134.671 1283.4L135.509 1282.86L133.329 1279.51L132.491 1280.05ZM1522.93 1287.06C1523.66 1285.95 1524.39 1284.83 1525.12 1283.72L1524.29 1283.17L1522.09 1286.51L1522.93 1287.06ZM136.866 1286.75C137.6 1287.86 138.337 1288.97 139.076 1290.08L139.91 1289.52L137.699 1286.19L136.866 1286.75ZM1518.49 1293.71C1519.23 1292.6 1519.98 1291.5 1520.72 1290.39L1519.89 1289.83L1517.66 1293.15L1518.49 1293.71ZM141.303 1293.4C142.049 1294.5 142.797 1295.61 143.548 1296.71L144.376 1296.15L142.131 1292.84L141.303 1293.4ZM1513.98 1300.32C1514.73 1299.22 1515.49 1298.12 1516.24 1297.02L1515.42 1296.45L1513.15 1299.76L1513.98 1300.32ZM145.809 1300.01C146.566 1301.11 147.325 1302.21 148.086 1303.3L148.909 1302.73L146.632 1299.44L145.809 1300.01ZM1509.41 1306.89C1510.17 1305.8 1510.94 1304.71 1511.7 1303.61L1510.88 1303.04L1508.59 1306.32L1509.41 1306.89ZM150.379 1306.58C151.145 1307.67 151.915 1308.76 152.686 1309.85L153.503 1309.27L151.196 1306.01L150.379 1306.58ZM1504.77 1313.41C1505.55 1312.33 1506.33 1311.25 1507.1 1310.16L1506.28 1309.58L1503.96 1312.83L1504.77 1313.41ZM155.009 1313.11C155.786 1314.19 156.566 1315.27 157.348 1316.35L158.159 1315.77L155.821 1312.52L155.009 1313.11ZM1500.08 1319.89C1500.86 1318.81 1501.65 1317.73 1502.43 1316.66L1501.62 1316.07L1499.27 1319.3L1500.08 1319.89ZM159.701 1319.59C160.488 1320.66 161.278 1321.73 162.07 1322.81L162.876 1322.21L160.507 1318.99L159.701 1319.59ZM1495.32 1326.32C1496.12 1325.25 1496.91 1324.18 1497.71 1323.11L1496.9 1322.51L1494.52 1325.72L1495.32 1326.32ZM164.454 1326.02C165.252 1327.08 166.052 1328.15 166.855 1329.22L167.655 1328.62L165.254 1325.42L164.454 1326.02ZM1490.5 1332.7C1491.31 1331.64 1492.12 1330.58 1492.92 1329.52L1492.12 1328.91L1489.7 1332.1L1490.5 1332.7ZM169.272 1332.41C170.08 1333.47 170.891 1334.53 171.704 1335.58L172.498 1334.98L170.066 1331.8L169.272 1332.41ZM1485.62 1339.05C1486.44 1337.99 1487.25 1336.94 1488.07 1335.88L1487.28 1335.27L1484.83 1338.43L1485.62 1339.05ZM174.151 1338.75C174.969 1339.8 175.79 1340.85 176.613 1341.9L177.401 1341.29L174.939 1338.13L174.151 1338.75ZM1480.68 1345.34C1481.51 1344.29 1482.33 1343.25 1483.16 1342.2L1482.37 1341.58L1479.89 1344.72L1480.68 1345.34ZM179.09 1345.04C179.918 1346.09 180.748 1347.13 181.581 1348.17L182.363 1347.55L179.872 1344.42L179.09 1345.04ZM1475.68 1351.58C1476.52 1350.54 1477.35 1349.51 1478.18 1348.47L1477.41 1347.84L1475.28 1350.48L1474.9 1350.95L1475.68 1351.58ZM184.087 1351.29C184.925 1352.33 185.765 1353.36 186.608 1354.39L187.385 1353.76L184.864 1350.66L184.087 1351.29ZM1470.62 1357.78C1471.47 1356.75 1472.31 1355.72 1473.15 1354.68L1472.38 1354.05L1469.85 1357.14L1470.62 1357.78ZM189.144 1357.49C189.992 1358.52 190.843 1359.54 191.696 1360.57L192.466 1359.93L189.914 1356.85L189.144 1357.49ZM1465.5 1363.92C1466.35 1362.9 1467.21 1361.88 1468.06 1360.86L1467.3 1360.21L1465.28 1362.63L1464.73 1363.28L1465.5 1363.92ZM194.262 1363.64C195.12 1364.66 195.981 1365.68 196.844 1366.69L197.608 1366.05L195.026 1362.99L194.262 1363.64ZM1460.32 1370.02C1461.19 1369.01 1462.05 1368 1462.91 1366.98L1462.15 1366.33L1459.56 1369.37L1460.32 1370.02ZM199.439 1369.74C200.307 1370.75 201.177 1371.76 202.049 1372.77L202.806 1372.12L201.993 1371.18L200.198 1369.09L199.439 1369.74ZM1455.08 1376.07C1455.96 1375.07 1456.83 1374.06 1457.71 1373.05L1456.95 1372.4L1454.33 1375.42L1455.08 1376.07ZM204.674 1375.79C205.551 1376.79 206.431 1377.8 207.313 1378.8L208.064 1378.14L205.425 1375.13L204.674 1375.79ZM1449.79 1382.07C1450.67 1381.07 1451.56 1380.08 1452.44 1379.08L1451.69 1378.41L1449.32 1381.09L1449.04 1381.4L1449.79 1382.07ZM209.965 1381.79C210.852 1382.78 211.741 1383.78 212.633 1384.77L213.377 1384.1L211.524 1382.03L210.712 1381.12L209.965 1381.79ZM1444.43 1388.01C1445.33 1387.03 1446.23 1386.04 1447.12 1385.05L1446.37 1384.38L1446.05 1384.74L1443.69 1387.34L1444.43 1388.01ZM215.314 1387.74C216.21 1388.72 217.109 1389.71 218.01 1390.69L218.748 1390.02L217.597 1388.76L216.053 1387.06L215.314 1387.74ZM1439.02 1393.91C1439.93 1392.93 1440.83 1391.95 1441.74 1390.97L1441 1390.29L1438.29 1393.23L1439.02 1393.91ZM220.721 1393.64C221.626 1394.61 222.534 1395.59 223.445 1396.56L224.177 1395.88L221.453 1392.95L220.721 1393.64ZM1433.56 1399.75C1434.47 1398.78 1435.39 1397.81 1436.3 1396.84L1435.57 1396.15L1432.83 1399.07L1433.56 1399.75ZM226.183 1399.48C227.098 1400.45 228.016 1401.42 228.936 1402.38L229.661 1401.7L226.909 1398.79L226.183 1399.48ZM1428.04 1405.54C1428.96 1404.58 1429.89 1403.62 1430.81 1402.66L1430.08 1401.96L1428.38 1403.74L1427.32 1404.85L1428.04 1405.54ZM231.702 1405.27C232.626 1406.24 233.553 1407.19 234.481 1408.15L235.201 1407.46L232.421 1404.58L231.702 1405.27ZM1422.46 1411.28C1423.4 1410.33 1424.33 1409.38 1425.26 1408.42L1424.54 1407.72L1423.82 1408.47L1421.75 1410.58L1422.46 1411.28ZM237.275 1411.01C238.208 1411.97 239.144 1412.92 240.082 1413.86L240.794 1413.16L238.753 1411.09L237.989 1410.31L237.275 1411.01ZM1416.83 1416.96C1417.78 1416.02 1418.72 1415.08 1419.65 1414.13L1418.94 1413.43L1417.43 1414.95L1416.12 1416.26L1416.83 1416.96ZM242.903 1416.7C243.845 1417.64 244.79 1418.58 245.737 1419.52L246.442 1418.81L244.422 1416.8L243.61 1415.99L242.903 1416.7ZM1411.15 1422.59C1412.1 1421.66 1413.05 1420.72 1414 1419.79L1413.29 1419.07L1411.3 1421.04L1410.45 1421.88L1411.15 1422.59ZM248.585 1422.33C249.537 1423.27 250.49 1424.2 251.446 1425.13L252.145 1424.41L250.048 1422.37L249.285 1421.62L248.585 1422.33ZM1405.41 1428.17C1406.37 1427.24 1407.33 1426.32 1408.29 1425.39L1407.59 1424.67L1404.71 1427.45L1405.41 1428.17ZM254.321 1427.91C255.281 1428.83 256.244 1429.76 257.209 1430.68L257.901 1429.95L255.42 1427.58L255.014 1427.19L254.321 1427.91ZM1399.62 1433.69C1400.59 1432.78 1401.55 1431.86 1402.52 1430.94L1401.83 1430.21L1400.05 1431.9L1398.93 1432.96L1399.62 1433.69ZM260.11 1433.43C261.079 1434.35 262.051 1435.26 263.025 1436.17L263.71 1435.44L260.795 1432.7L260.11 1433.43ZM1393.77 1439.15C1394.75 1438.25 1395.73 1437.34 1396.7 1436.43L1396.02 1435.69L1393.09 1438.42L1393.77 1439.15ZM265.952 1438.9C266.93 1439.8 267.911 1440.71 268.893 1441.61L269.571 1440.87L266.63 1438.16L265.952 1438.9ZM1387.88 1444.56C1388.86 1443.66 1389.85 1442.76 1390.83 1441.86L1390.16 1441.12L1387.87 1443.21L1387.2 1443.82L1387.88 1444.56ZM271.847 1444.31C272.833 1445.21 273.822 1446.1 274.813 1446.99L275.483 1446.25L273.946 1444.86L272.519 1443.57L271.847 1444.31ZM1381.93 1449.91C1382.92 1449.02 1383.92 1448.13 1384.91 1447.24L1384.24 1446.5L1382.68 1447.9L1381.26 1449.16L1381.93 1449.91ZM277.791 1449.66C278.786 1450.55 279.784 1451.43 280.783 1452.32L281.445 1451.57L280.937 1451.12L278.455 1448.91L277.791 1449.66ZM1375.93 1455.2C1376.93 1454.33 1377.94 1453.45 1378.94 1452.56L1378.28 1451.81L1376.71 1453.19L1375.27 1454.45L1375.93 1455.2ZM283.787 1454.96C284.791 1455.83 285.797 1456.71 286.804 1457.58L287.46 1456.83L286.262 1455.79L284.445 1454.2L283.787 1454.96ZM1369.88 1460.44C1370.89 1459.57 1371.9 1458.7 1372.91 1457.83L1372.26 1457.07L1369.23 1459.68L1369.88 1460.44ZM289.834 1460.19C290.846 1461.06 291.861 1461.93 292.877 1462.79L293.526 1462.03L290.484 1459.43L289.834 1460.19ZM1363.78 1465.62C1364.8 1464.76 1365.82 1463.9 1366.84 1463.04L1366.19 1462.27L1363.14 1464.85L1363.78 1465.62ZM295.932 1465.38C296.953 1466.23 297.975 1467.09 299 1467.94L299.642 1467.18L296.574 1464.61L295.932 1465.38ZM1357.63 1470.74C1358.66 1469.89 1359.69 1469.04 1360.71 1468.18L1360.07 1467.41L1356.99 1469.97L1357.63 1470.74ZM302.08 1470.5C303.108 1471.35 304.138 1472.19 305.171 1473.04L305.805 1472.26L302.715 1469.73L302.08 1470.5ZM1351.44 1475.79C1352.47 1474.96 1353.51 1474.12 1354.54 1473.27L1353.91 1472.5L1350.81 1475.02L1351.44 1475.79ZM308.273 1475.56C309.309 1476.4 310.348 1477.23 311.388 1478.07L312.015 1477.29L308.9 1474.78L308.273 1475.56ZM1345.19 1480.79C1346.24 1479.97 1347.28 1479.13 1348.32 1478.3L1347.7 1477.52L1344.57 1480.01L1345.19 1480.79ZM314.515 1480.56C315.56 1481.39 316.606 1482.22 317.655 1483.04L318.275 1482.26L315.135 1479.78L314.515 1480.56ZM1338.9 1485.73C1339.95 1484.92 1341 1484.09 1342.05 1483.27L1341.43 1482.48L1339.97 1483.63L1338.28 1484.95L1338.9 1485.73ZM320.807 1485.5C321.859 1486.32 322.914 1487.14 323.97 1487.95L324.583 1487.16L321.419 1484.71L320.807 1485.5ZM1332.56 1490.61C1333.62 1489.81 1334.68 1488.99 1335.73 1488.18L1335.12 1487.39L1331.95 1489.82L1332.56 1490.61ZM327.146 1490.39C328.207 1491.2 329.27 1492 330.334 1492.81L330.937 1492.01L330.621 1491.77L327.751 1489.59L327.146 1490.39ZM1326.17 1495.43C1327.23 1494.64 1328.3 1493.84 1329.37 1493.03L1328.77 1492.23L1325.57 1494.63L1326.17 1495.43ZM333.534 1495.21C334.601 1496.01 335.671 1496.8 336.742 1497.6L337.339 1496.79L334.131 1494.41L333.534 1495.21ZM1319.74 1500.19C1320.81 1499.4 1321.89 1498.61 1322.96 1497.82L1322.36 1497.01L1319.14 1499.38L1319.74 1500.19ZM339.961 1499.97C341.037 1500.75 342.114 1501.54 343.193 1502.32L343.782 1501.51L340.551 1499.16L339.961 1499.97ZM1313.26 1504.88C1314.34 1504.11 1315.42 1503.33 1316.5 1502.54L1315.92 1501.73L1312.67 1504.07L1313.26 1504.88ZM346.436 1504.66C347.519 1505.44 348.604 1506.22 349.691 1506.99L350.272 1506.17L347.017 1503.85L346.436 1504.66ZM1306.74 1509.51C1307.83 1508.75 1308.92 1507.98 1310 1507.21L1309.43 1506.39L1306.16 1508.7L1306.74 1509.51ZM352.957 1509.3C354.048 1510.07 355.141 1510.83 356.235 1511.59L356.809 1510.77L353.531 1508.48L352.957 1509.3ZM1300.17 1514.08C1301.27 1513.33 1302.36 1512.57 1303.46 1511.81L1302.89 1510.98L1299.79 1513.13L1299.6 1513.26L1300.17 1514.08ZM359.525 1513.87C360.623 1514.63 361.724 1515.38 362.826 1516.14L363.391 1515.31L360.09 1513.05L359.525 1513.87ZM1293.55 1518.59C1294.66 1517.85 1295.76 1517.1 1296.86 1516.35L1296.3 1515.52L1292.99 1517.76L1293.55 1518.59ZM366.138 1518.38C367.242 1519.13 368.348 1519.87 369.456 1520.61L370.013 1519.78L366.696 1517.55L366.138 1518.38ZM1286.9 1523.03C1288.01 1522.3 1289.12 1521.56 1290.23 1520.82L1289.68 1519.99L1286.35 1522.2L1286.9 1523.03ZM372.785 1522.82C373.897 1523.56 375.01 1524.29 376.126 1525.02L376.675 1524.19L373.335 1521.99L372.785 1522.82ZM1280.21 1527.41C1281.33 1526.68 1282.45 1525.96 1283.56 1525.23L1283.02 1524.39L1279.66 1526.57L1280.21 1527.41ZM379.477 1527.2C380.596 1527.93 381.717 1528.65 382.84 1529.37L383.381 1528.53L380.019 1526.36L379.477 1527.2ZM1273.47 1531.72C1274.6 1531.01 1275.72 1530.29 1276.84 1529.57L1276.31 1528.73L1272.93 1530.88L1273.47 1531.72ZM386.214 1531.52C387.34 1532.23 388.469 1532.95 389.599 1533.65L390.132 1532.81L386.747 1530.67L386.214 1531.52ZM1266.69 1535.97C1267.82 1535.27 1268.95 1534.56 1270.08 1533.85L1269.56 1533L1266.16 1535.12L1266.69 1535.97ZM392.995 1535.77C394.128 1536.48 395.264 1537.18 396.401 1537.88L396.926 1537.02L393.52 1534.92L392.995 1535.77ZM1259.86 1540.16C1261 1539.46 1262.14 1538.77 1263.28 1538.07L1262.76 1537.22L1259.34 1539.3L1259.86 1540.16ZM399.818 1539.96C400.957 1540.65 402.097 1541.34 403.239 1542.03L403.756 1541.17L400.335 1539.11L399.818 1539.96ZM1253.01 1544.27C1254.15 1543.59 1255.3 1542.91 1256.44 1542.22L1255.93 1541.36L1255.61 1541.55L1252.5 1543.41L1253.01 1544.27ZM406.67 1544.08C407.816 1544.76 408.963 1545.44 410.112 1546.11L410.621 1545.25L407.179 1543.22L406.67 1544.08ZM1246.11 1548.32C1247.26 1547.65 1248.42 1546.98 1249.57 1546.3L1249.06 1545.44L1245.61 1547.45L1246.11 1548.32ZM413.565 1548.13C414.718 1548.8 415.872 1549.46 417.028 1550.13L417.528 1549.26L414.065 1547.26L413.565 1548.13ZM1239.17 1552.3C1240.33 1551.64 1241.49 1550.98 1242.65 1550.32L1242.15 1549.45L1238.68 1551.43L1239.17 1552.3ZM420.501 1552.11C421.661 1552.77 422.822 1553.43 423.985 1554.08L424.477 1553.21L420.993 1551.24L420.501 1552.11ZM1232.19 1556.22C1233.36 1555.57 1234.52 1554.92 1235.69 1554.27L1235.2 1553.39L1231.71 1555.35L1232.19 1556.22ZM427.48 1556.04C428.646 1556.68 429.815 1557.33 430.985 1557.97L431.468 1557.1L427.963 1555.16L427.48 1556.04ZM1225.17 1560.07C1226.35 1559.43 1227.52 1558.79 1228.69 1558.15L1228.21 1557.28L1224.69 1559.19L1225.17 1560.07ZM434.499 1559.89C435.669 1560.53 436.841 1561.16 438.015 1561.79L438.49 1560.91L434.975 1559.01L434.499 1559.89ZM1218.13 1563.85C1219.31 1563.22 1220.48 1562.6 1221.66 1561.97L1221.19 1561.08L1217.66 1562.96L1218.13 1563.85ZM441.54 1563.67C442.717 1564.3 443.895 1564.92 445.076 1565.54L445.542 1564.65L442.007 1562.79L441.54 1563.67ZM1211.05 1567.56C1212.23 1566.94 1213.41 1566.33 1214.59 1565.71L1214.13 1564.82L1210.58 1566.67L1211.05 1567.56ZM448.621 1567.38C449.805 1568 450.99 1568.61 452.177 1569.22L452.635 1568.33L449.079 1566.5L448.621 1567.38ZM1203.92 1571.2C1205.11 1570.6 1206.3 1569.99 1207.49 1569.39L1207.04 1568.5L1203.47 1570.31L1203.92 1571.2ZM455.742 1571.03C456.932 1571.63 458.124 1572.23 459.318 1572.83L459.767 1571.94L456.192 1570.14L455.742 1571.03ZM1196.76 1574.78C1197.96 1574.19 1199.15 1573.59 1200.35 1573L1199.9 1572.1L1196.32 1573.88L1196.76 1574.78ZM462.903 1574.61C464.099 1575.2 465.298 1575.79 466.498 1576.38L466.938 1575.48L463.343 1573.71L462.903 1574.61ZM1189.56 1578.29C1190.76 1577.71 1191.97 1577.13 1193.17 1576.54L1192.73 1575.64L1189.12 1577.39L1189.56 1578.29ZM470.102 1578.12C471.302 1578.7 472.502 1579.28 473.705 1579.85L474.137 1578.95L470.534 1577.22L470.102 1578.12ZM1182.35 1581.72C1183.55 1581.15 1184.76 1580.58 1185.96 1580.01L1185.53 1579.11L1181.92 1580.81L1182.35 1581.72ZM477.316 1581.56C478.521 1582.13 479.728 1582.69 480.937 1583.25L481.36 1582.34L477.739 1580.65L477.316 1581.56ZM1175.09 1585.08C1176.3 1584.53 1177.51 1583.97 1178.72 1583.41L1178.31 1582.5L1174.67 1584.17L1175.09 1585.08ZM484.567 1584.92C485.779 1585.48 486.992 1586.03 488.207 1586.58L488.621 1585.67L484.982 1584.01L484.567 1584.92ZM1167.8 1588.38C1169.02 1587.83 1170.24 1587.29 1171.45 1586.74L1171.04 1585.82L1167.39 1587.46L1167.8 1588.38ZM491.856 1588.22C493.074 1588.77 494.294 1589.31 495.515 1589.85L495.92 1588.93L492.262 1587.31L491.856 1588.22ZM1160.47 1591.6C1161.7 1591.07 1162.92 1590.53 1164.14 1590L1163.74 1589.08L1160.07 1590.69L1160.47 1591.6ZM499.182 1591.45C500.406 1591.98 501.632 1592.51 502.859 1593.04L503.256 1592.12L499.579 1590.53L499.182 1591.45ZM1153.11 1594.76C1154.34 1594.24 1155.57 1593.72 1156.8 1593.19L1156.4 1592.27L1152.72 1593.84L1153.11 1594.76ZM506.545 1594.61C507.771 1595.13 508.998 1595.65 510.227 1596.16L510.615 1595.24L506.933 1593.69L506.545 1594.61ZM1145.74 1597.84C1146.97 1597.33 1148.2 1596.82 1149.43 1596.31L1149.05 1595.38L1145.36 1596.91L1145.74 1597.84ZM513.916 1597.69C515.147 1598.2 516.38 1598.7 517.614 1599.21L517.992 1598.28L514.295 1596.77L513.916 1597.69ZM1138.33 1600.84C1139.57 1600.35 1140.81 1599.85 1142.04 1599.35L1141.67 1598.42L1137.96 1599.91L1138.33 1600.84ZM521.32 1600.7C522.557 1601.2 523.796 1601.69 525.036 1602.18L525.406 1601.25L521.69 1599.77L521.32 1600.7ZM1130.89 1603.78C1132.13 1603.3 1133.38 1602.81 1134.62 1602.32L1134.25 1601.39L1130.53 1602.85L1130.89 1603.78ZM528.76 1603.64C530.003 1604.13 531.247 1604.61 532.493 1605.09L532.854 1604.16L529.121 1602.71L528.76 1603.64ZM1123.41 1606.65C1124.66 1606.18 1125.91 1605.7 1127.16 1605.22L1126.8 1604.29L1123.06 1605.71L1123.41 1606.65ZM536.235 1606.51C537.484 1606.99 538.734 1607.46 539.985 1607.92L540.337 1606.99L536.587 1605.58L536.235 1606.51ZM1115.9 1609.44C1117.16 1608.98 1118.41 1608.52 1119.66 1608.05L1119.32 1607.12L1115.56 1608.51L1115.9 1609.44ZM543.744 1609.32C544.994 1609.77 546.245 1610.23 547.498 1610.68L547.84 1609.74L544.087 1608.38L543.744 1609.32ZM1108.39 1612.16C1109.65 1611.71 1110.9 1611.26 1112.15 1610.81L1111.81 1609.87L1108.06 1611.22L1108.39 1612.16ZM551.255 1612.03C552.509 1612.48 553.764 1612.92 555.021 1613.37L555.355 1612.42L551.589 1611.09L551.255 1612.03ZM1100.85 1614.8C1102.11 1614.37 1103.37 1613.93 1104.63 1613.49L1104.3 1612.55L1100.52 1613.86L1100.85 1614.8ZM558.795 1614.68C560.055 1615.12 561.316 1615.55 562.578 1615.98L562.902 1615.03L559.12 1613.73L558.795 1614.68ZM1093.28 1617.38C1094.54 1616.95 1095.81 1616.53 1097.07 1616.1L1096.75 1615.15L1092.96 1616.43L1093.28 1617.38ZM566.368 1617.26C567.633 1617.68 568.9 1618.1 570.167 1618.52L570.482 1617.57L566.684 1616.31L566.368 1617.26ZM1085.67 1619.88C1086.94 1619.47 1088.21 1619.05 1089.48 1618.63L1089.17 1617.68L1085.36 1618.93L1085.67 1619.88ZM573.974 1619.76C575.244 1620.17 576.516 1620.58 577.789 1620.99L578.095 1620.03L574.28 1618.81L573.974 1619.76ZM1078.03 1622.31C1079.31 1621.91 1080.58 1621.51 1081.85 1621.1L1081.55 1620.15L1077.73 1621.35L1078.03 1622.31ZM581.612 1622.19C582.883 1622.59 584.156 1622.99 585.43 1623.38L585.727 1622.43L581.909 1621.24L581.612 1622.19ZM1070.4 1624.65C1071.67 1624.27 1072.94 1623.88 1074.21 1623.49L1073.92 1622.53L1070.1 1623.7L1070.4 1624.65ZM589.247 1624.55C590.521 1624.93 591.796 1625.31 593.072 1625.69L593.359 1624.73L589.535 1623.59L589.247 1624.55ZM1062.74 1626.93C1064.02 1626.55 1065.29 1626.18 1066.57 1625.8L1066.29 1624.84L1062.45 1625.97L1062.74 1626.93ZM596.905 1626.82C598.184 1627.2 599.464 1627.57 600.745 1627.93L601.023 1626.97L597.183 1625.86L596.905 1626.82ZM1055.05 1629.13C1056.33 1628.77 1057.61 1628.41 1058.9 1628.04L1058.62 1627.07L1054.77 1628.17L1055.05 1629.13ZM604.593 1629.03C605.877 1629.39 607.162 1629.75 608.448 1630.1L608.717 1629.14L604.861 1628.06L604.593 1629.03ZM1047.33 1631.26C1048.62 1630.91 1049.9 1630.56 1051.19 1630.2L1050.93 1629.24L1047.06 1630.29L1047.33 1631.26ZM612.311 1631.16C613.6 1631.51 614.89 1631.85 616.182 1632.2L616.441 1631.23L612.57 1630.19L612.311 1631.16ZM1039.58 1633.31C1040.87 1632.98 1042.17 1632.64 1043.46 1632.29L1043.2 1631.33L1039.32 1632.35L1039.58 1633.31ZM620.059 1633.22C621.35 1633.56 622.642 1633.89 623.936 1634.22L624.186 1633.25L620.309 1632.25L620.059 1633.22ZM1031.83 1635.29C1033.12 1634.96 1034.41 1634.64 1035.7 1634.31L1035.46 1633.34L1031.59 1634.32L1031.83 1635.29ZM627.803 1635.2C629.093 1635.52 630.385 1635.84 631.677 1636.16L631.918 1635.19L628.043 1634.23L627.803 1635.2ZM1024.08 1637.19C1025.37 1636.88 1026.67 1636.56 1027.96 1636.25L1027.72 1635.27L1023.84 1636.21L1024.08 1637.19ZM635.559 1637.1C636.854 1637.41 638.15 1637.72 639.447 1638.02L639.679 1637.05L635.79 1636.13L635.559 1637.1ZM1016.29 1639.01C1017.59 1638.71 1018.89 1638.41 1020.19 1638.11L1019.96 1637.13L1016.07 1638.04L1016.29 1639.01ZM643.343 1638.93C644.643 1639.23 645.944 1639.52 647.246 1639.81L647.467 1638.84L643.565 1637.95L643.343 1638.93ZM1008.48 1640.76C1009.79 1640.47 1011.09 1640.19 1012.39 1639.9L1012.17 1638.92L1008.26 1639.79L1008.48 1640.76ZM651.155 1640.68C652.46 1640.97 653.765 1641.25 655.072 1641.53L655.284 1640.56L651.367 1639.71L651.155 1640.68ZM1000.64 1642.44C1001.95 1642.17 1003.25 1641.89 1004.56 1641.61L1004.35 1640.63L1000.43 1641.46L1000.64 1642.44ZM658.995 1642.36C660.304 1642.64 661.613 1642.91 662.924 1643.18L663.126 1642.2L659.198 1641.39L658.995 1642.36ZM992.802 1644.04C994.106 1643.78 995.409 1643.52 996.711 1643.25L996.513 1642.27L992.605 1643.06L992.802 1644.04ZM666.831 1643.97C668.135 1644.23 669.44 1644.49 670.746 1644.74L670.939 1643.76L667.025 1642.99L666.831 1643.97ZM984.966 1645.56C986.274 1645.31 987.581 1645.06 988.887 1644.81L988.7 1643.83L984.778 1644.58L984.966 1645.56ZM674.667 1645.49C675.975 1645.74 677.284 1645.98 678.594 1646.22L678.778 1645.24L674.85 1644.51L674.667 1645.49ZM977.104 1647C978.416 1646.77 979.728 1646.53 981.038 1646.29L980.86 1645.31L976.925 1646.02L977.104 1647ZM682.528 1646.94C683.84 1647.17 685.153 1647.41 686.468 1647.63L686.642 1646.65L682.702 1645.95L682.528 1646.94ZM969.216 1648.38C970.532 1648.15 971.848 1647.93 973.163 1647.7L972.994 1646.71L969.047 1647.39L969.216 1648.38ZM690.415 1648.31C691.731 1648.54 693.048 1648.76 694.367 1648.97L694.532 1647.99L690.579 1647.33L690.415 1648.31ZM961.302 1649.67C962.623 1649.46 963.943 1649.25 965.262 1649.03L965.103 1648.05L961.143 1648.69L961.302 1649.67ZM698.326 1649.61C699.647 1649.82 700.969 1650.03 702.292 1650.24L702.447 1649.25L698.482 1648.63L698.326 1649.61ZM953.39 1650.89C954.706 1650.69 956.022 1650.5 957.336 1650.29L957.187 1649.3L953.24 1649.9L953.39 1650.89ZM706.241 1650.84C707.555 1651.03 708.87 1651.23 710.185 1651.42L710.331 1650.43L706.387 1649.85L706.241 1650.84ZM945.494 1652.03C946.812 1651.85 948.129 1651.66 949.445 1651.47L949.305 1650.48L945.354 1651.04L945.494 1652.03ZM714.136 1651.98C715.453 1652.16 716.772 1652.34 718.092 1652.52L718.228 1651.53L714.272 1650.99L714.136 1651.98ZM937.575 1653.09C938.897 1652.92 940.218 1652.75 941.537 1652.57L941.407 1651.58L937.444 1652.1L937.575 1653.09ZM722.054 1653.04C723.376 1653.22 724.698 1653.38 726.022 1653.55L726.148 1652.56L722.18 1652.05L722.054 1653.04ZM929.632 1654.08C930.958 1653.92 932.283 1653.76 933.606 1653.6L933.485 1652.6L929.511 1653.09L929.632 1654.08ZM729.996 1654.04C731.321 1654.2 732.648 1654.35 733.975 1654.51L734.092 1653.51L730.112 1653.04L729.996 1654.04ZM921.666 1655C922.996 1654.85 924.324 1654.7 925.652 1654.55L925.54 1653.55L921.555 1654L921.666 1655ZM737.96 1654.95C739.29 1655.1 740.62 1655.24 741.951 1655.39L742.059 1654.39L738.068 1653.96L737.96 1654.95ZM913.689 1655.83C915.019 1655.7 916.347 1655.56 917.675 1655.42L917.573 1654.43L913.587 1654.84L913.689 1655.83ZM745.94 1655.8C747.261 1655.93 748.582 1656.06 749.904 1656.19L750.002 1655.19L746.038 1654.8L745.94 1655.8ZM905.754 1656.59C907.079 1656.47 908.402 1656.35 909.724 1656.22L909.632 1655.22L905.662 1655.59L905.754 1656.59ZM753.874 1656.56C755.198 1656.68 756.523 1656.79 757.849 1656.91L757.937 1655.91L753.962 1655.56L753.874 1656.56ZM897.798 1657.27C899.126 1657.16 900.453 1657.05 901.779 1656.94L901.696 1655.94L897.715 1656.27L897.798 1657.27ZM761.829 1657.24C763.157 1657.35 764.485 1657.45 765.815 1657.56L765.893 1656.56L761.908 1656.24L761.829 1657.24ZM889.82 1657.88C891.152 1657.78 892.482 1657.68 893.812 1657.58L893.738 1656.59L889.747 1656.88L889.82 1657.88ZM769.806 1657.85C771.137 1657.95 772.469 1658.04 773.802 1658.13L773.871 1657.13L769.875 1656.85L769.806 1657.85ZM881.822 1658.41C883.157 1658.33 884.491 1658.24 885.824 1658.15L885.76 1657.15L881.758 1657.41L881.822 1658.41ZM777.803 1658.39C779.138 1658.47 780.473 1658.55 781.81 1658.62L781.869 1657.63L777.863 1657.39L777.803 1658.39ZM873.803 1658.86C875.141 1658.79 876.479 1658.72 877.815 1658.65L877.761 1657.65L873.749 1657.87L873.803 1658.86ZM785.821 1658.84C787.15 1658.91 788.48 1658.98 789.81 1659.04L789.86 1658.05L785.871 1657.85L785.821 1658.84ZM865.838 1659.24C867.165 1659.18 868.492 1659.12 869.817 1659.06L869.772 1658.06L865.793 1658.24L865.838 1659.24ZM793.789 1659.22C795.116 1659.28 796.444 1659.34 797.773 1659.39L797.813 1658.39L793.83 1658.23L793.789 1659.22ZM857.865 1659.54C859.195 1659.5 860.525 1659.45 861.854 1659.4L861.818 1658.4L857.83 1658.54L857.865 1659.54ZM801.762 1659.53C803.092 1659.57 804.423 1659.61 805.755 1659.65L805.786 1658.65L801.793 1658.53L801.762 1659.53ZM849.873 1659.77C851.206 1659.74 852.539 1659.7 853.871 1659.66L853.845 1658.66L849.847 1658.77L849.873 1659.77ZM809.753 1659.76C811.086 1659.79 812.42 1659.82 813.755 1659.84L813.777 1658.84L809.774 1658.76L809.753 1659.76ZM841.862 1659.92C843.199 1659.9 844.535 1659.88 845.87 1659.85L845.853 1658.85L841.846 1658.92L841.862 1659.92ZM817.763 1659.91C819.099 1659.93 820.436 1659.95 821.774 1659.96L821.786 1658.96L817.775 1658.91L817.763 1659.91ZM833.833 1659.99C835.173 1659.99 836.512 1659.98 837.85 1659.96L837.843 1658.96L833.826 1658.99L833.833 1659.99ZM825.791 1659.99C827.13 1660 828.471 1660 829.812 1660L829.814 1659L825.793 1658.99L825.791 1659.99Z">
</path>
</g>
</svg>
