<svg xmlns="http://www.w3.org/2000/svg" xmlns:xlink="http://www.w3.org/1999/xlink" width="16.19775390625" height="17.62109375" viewBox="0 0 16.19775390625 17.62109375" fill="none">
<path d="M12.8051 4.81507C12.8051 6.78507 11.7106 8.42674 10.069 9.19285C13.5712 10.0684 16.1978 13.2423 16.1978 17.0729C16.1978 17.4012 15.979 17.6201 15.6506 17.6201L0.547284 17.6201C0.21895 17.6201 6.10352e-05 17.4012 6.10352e-05 17.0729C6.10352e-05 13.2423 2.62673 10.0684 5.91007 9.19285C4.2684 8.42674 3.17395 6.78507 3.17395 4.81507C3.17395 2.1884 5.36284 -0.000488281 7.98951 -0.000488281C10.6162 -0.000488281 12.8051 2.1884 12.8051 4.81507ZM8.09896 1.2034C6.01951 1.2034 4.37784 2.84507 4.37784 4.92451C4.37784 6.89452 6.01951 8.53618 8.09896 8.53618C10.1784 8.53618 11.8201 7.00396 11.8201 4.92451C11.8201 2.84507 10.1784 1.2034 8.09896 1.2034ZM8.09896 10.0684C4.37784 10.0684 1.42284 12.914 1.09451 16.5256L15.1034 16.5256C14.7751 12.914 11.8201 10.0684 8.09896 10.0684ZM7.59352 11.3733C7.56602 11.307 7.55186 11.2358 7.55186 11.1639C7.55186 11.0188 7.60951 10.8796 7.71214 10.777C7.81476 10.6744 7.95395 10.6167 8.09908 10.6167C8.24422 10.6167 8.3834 10.6744 8.48603 10.777C8.58865 10.8796 8.64631 11.0188 8.64631 11.1639C8.64631 11.2358 8.63215 11.307 8.60465 11.3733C8.57715 11.4397 8.53684 11.5001 8.48603 11.5509C8.43521 11.6017 8.37489 11.642 8.3085 11.6695C8.2421 11.697 8.17095 11.7112 8.09908 11.7112C8.02722 11.7112 7.95606 11.697 7.88967 11.6695C7.82328 11.642 7.76295 11.6017 7.71214 11.5509C7.66132 11.5001 7.62102 11.4397 7.59352 11.3733ZM8.42728 11.9311C7.98951 12.0406 7.77062 11.9311 7.77062 11.9311L7.66117 11.9311C7.66117 11.9311 7.55173 11.9311 7.55173 12.0406L6.89506 14.12L6.89506 14.2294L7.88006 15.2144L8.09895 15.2144L9.1934 14.12L9.1934 14.0106L8.42728 11.9311ZM8.42728 11.9311C8.48201 11.9858 8.50937 11.9858 8.50937 11.9722C8.50937 11.9585 8.48201 11.9311 8.42728 11.9311Z" fill-rule="evenodd"  fill="#FFFFFF" >
</path>
</svg>
